<svg width="174" height="47" viewBox="0 0 174 47" fill="none" xmlns="http://www.w3.org/2000/svg">
<path d="M21.616 23.864C21.712 24.152 21.696 24.36 21.568 24.488C21.568 24.552 21.536 24.584 21.472 24.584C21.344 24.68 21.216 24.76 21.088 24.824C21.024 24.888 20.976 24.92 20.944 24.92C20.816 25.016 20.672 25.096 20.512 25.16C20.096 25.288 19.824 25.368 19.696 25.4C19.152 25.88 18.592 26.136 18.016 26.168C17.76 26.2 17.488 26.216 17.2 26.216C17.104 26.248 16.88 26.264 16.528 26.264C16.464 26.232 16.368 26.216 16.24 26.216C16.08 26.184 15.856 26.168 15.568 26.168C15.472 26.168 15.36 26.168 15.232 26.168C15.104 26.168 14.976 26.152 14.848 26.12C14.656 26.12 14.448 26.12 14.224 26.12C14.128 26.12 14.064 26.104 14.032 26.072C13.84 26.072 13.632 26.056 13.408 26.024C13.344 26.024 13.28 26.008 13.216 25.976C13.056 25.976 12.88 25.96 12.688 25.928C12.656 25.928 12.624 25.928 12.592 25.928H12.544H12.496C12.496 25.96 12.48 25.976 12.448 25.976C12.384 25.976 12.336 25.992 12.304 26.024C12.272 26.024 12.224 26.024 12.16 26.024C12.064 26.056 11.968 26.088 11.872 26.12C11.296 26.12 10.864 26.136 10.576 26.168C10.416 26.168 10.24 26.168 10.048 26.168C9.824 26.168 9.648 26.088 9.52 25.928C9.232 25.704 9.184 25.464 9.376 25.208C9.536 24.6 9.696 24.216 9.856 24.056C10.112 23.832 10.368 23.608 10.624 23.384C11.04 23.16 11.44 23.048 11.824 23.048C12.08 23.048 12.336 23.048 12.592 23.048C12.656 23.048 12.704 23.048 12.736 23.048C13.088 23.048 13.424 23.048 13.744 23.048C14.032 23.048 14.304 23.048 14.56 23.048C14.72 23.048 14.864 23.048 14.992 23.048C15.408 23.048 15.712 23.064 15.904 23.096C16.224 23.096 16.464 23.08 16.624 23.048C16.752 23.048 16.864 23.048 16.96 23.048C17.216 23.048 17.472 23.048 17.728 23.048C18.112 23.048 18.496 23.032 18.88 23C19.2 23 19.776 23.064 20.608 23.192C20.864 23.256 21.088 23.352 21.28 23.48C21.472 23.672 21.568 23.784 21.568 23.816C21.6 23.816 21.616 23.832 21.616 23.864ZM28.816 31.064C29.008 30.68 29.104 30.008 29.104 29.048C29.04 28.536 29.008 28.136 29.008 27.848C29.008 27.496 29.008 27.128 29.008 26.744C28.976 26.456 28.96 26.024 28.96 25.448C28.96 25.256 28.96 25.048 28.96 24.824C28.96 24.76 28.96 24.68 28.96 24.584C28.928 24.072 28.88 23.56 28.816 23.048H28.768C28.864 21.864 28.88 21.144 28.816 20.888C28.816 20.024 28.816 19.144 28.816 18.248C28.752 17.928 28.72 17.688 28.72 17.528C28.752 17.4 28.768 17.224 28.768 17C28.768 16.616 28.688 16.344 28.528 16.184C28.112 15.896 27.568 15.784 26.896 15.848C26.704 15.784 26.528 15.752 26.368 15.752C26.176 15.72 25.536 15.704 24.448 15.704C24.192 15.672 23.92 15.624 23.632 15.56C23.44 15.496 23.296 15.464 23.2 15.464C22.784 15.432 22.368 15.4 21.952 15.368C21.408 15.272 20.864 15.16 20.32 15.032C20.096 14.936 19.888 14.888 19.696 14.888C19.632 14.856 19.568 14.84 19.504 14.84C19.248 14.808 18.992 14.776 18.736 14.744C18.576 14.744 18.416 14.744 18.256 14.744C17.904 14.712 17.424 14.696 16.816 14.696C16.688 14.696 16.464 14.664 16.144 14.6C15.504 14.472 15.008 14.392 14.656 14.36C14.496 14.328 14.224 14.344 13.84 14.408C13.552 14.472 13.264 14.536 12.976 14.6C12.784 14.664 12.656 14.712 12.592 14.744C12.528 14.808 12.448 14.856 12.352 14.888C12.288 14.888 11.84 14.936 11.008 15.032C10.912 15.032 10.832 15.048 10.768 15.08C10.48 15.144 10.176 15.192 9.856 15.224C9.472 15.224 9.184 15.24 8.992 15.272C8.672 15.272 8.432 15.288 8.272 15.32C7.888 15.416 7.504 15.496 7.12 15.56C6.8 15.56 6.576 15.576 6.448 15.608C5.968 15.608 5.632 15.592 5.44 15.56C4.896 15.496 4.496 15.48 4.24 15.512C3.984 15.544 3.744 15.592 3.52 15.656C3.296 15.688 3.152 15.832 3.088 16.088C3.088 16.12 3.056 16.2 2.992 16.328C2.928 16.456 2.896 16.712 2.896 17.096C2.864 17.416 2.832 17.736 2.8 18.056C2.8 18.216 2.784 18.36 2.752 18.488C2.72 18.776 2.688 19.048 2.656 19.304C2.688 19.4 2.704 19.544 2.704 19.736C2.704 19.864 2.704 19.976 2.704 20.072C2.704 20.328 2.688 20.568 2.656 20.792C2.624 20.888 2.608 21.08 2.608 21.368C2.64 22.2 2.672 23.032 2.704 23.864C2.672 24.184 2.672 24.504 2.704 24.824C2.704 25.304 2.704 25.768 2.704 26.216C2.704 26.472 2.72 26.664 2.752 26.792C2.752 26.952 2.768 27.08 2.8 27.176C2.864 27.496 2.928 27.752 2.992 27.944C2.992 27.976 2.992 28.008 2.992 28.04C3.056 28.488 3.104 28.92 3.136 29.336C3.136 29.592 3.136 29.848 3.136 30.104C3.136 30.488 3.152 30.776 3.184 30.968C3.184 31.128 3.184 31.272 3.184 31.4C3.216 31.528 3.232 31.688 3.232 31.88C3.232 31.976 3.232 32.072 3.232 32.168C3.232 32.232 3.232 32.28 3.232 32.312C3.232 32.344 3.232 32.376 3.232 32.408C3.232 32.44 3.248 32.456 3.28 32.456C3.312 32.52 3.328 32.568 3.328 32.6C3.488 32.696 3.68 32.744 3.904 32.744C4.192 32.776 4.72 32.904 5.488 33.128C5.872 33.256 6.16 33.336 6.352 33.368C6.992 33.56 7.472 33.672 7.792 33.704C7.92 33.768 8.08 33.832 8.272 33.896C8.592 33.896 8.912 33.896 9.232 33.896C9.552 33.896 9.872 33.896 10.192 33.896C10.512 33.928 10.816 33.944 11.104 33.944C11.36 33.944 11.536 33.928 11.632 33.896C12.176 33.736 12.704 33.752 13.216 33.944C13.76 33.944 14.304 33.944 14.848 33.944C15.296 34.008 15.76 33.992 16.24 33.896C16.368 33.896 16.48 33.896 16.576 33.896C16.928 33.896 17.136 33.912 17.2 33.944C17.776 34.072 18.224 34.056 18.544 33.896C18.672 33.864 18.864 33.784 19.12 33.656C19.376 33.464 19.632 33.368 19.888 33.368C20.336 33.368 20.832 33.288 21.376 33.128C21.472 33.096 21.552 33.064 21.616 33.032C21.808 32.968 21.984 32.936 22.144 32.936C22.56 32.936 22.864 32.92 23.056 32.888C23.408 32.76 23.76 32.616 24.112 32.456C24.4 32.424 24.736 32.376 25.12 32.312C25.152 32.312 25.216 32.312 25.312 32.312C25.408 32.312 25.504 32.296 25.6 32.264C25.792 32.168 25.968 32.072 26.128 31.976C26.448 31.944 26.768 31.896 27.088 31.832C27.76 31.736 28.16 31.64 28.288 31.544C28.416 31.48 28.528 31.416 28.624 31.352C28.688 31.288 28.752 31.192 28.816 31.064ZM31.648 29.384C31.68 29.608 31.664 29.848 31.6 30.104C31.568 30.424 31.488 30.904 31.36 31.544C31.328 31.608 31.312 31.72 31.312 31.88C31.216 32.104 31.12 32.328 31.024 32.552C30.96 33.032 30.88 33.352 30.784 33.512C30.784 33.544 30.768 33.608 30.736 33.704C30.704 33.768 30.672 33.8 30.64 33.8H30.592C30.208 33.992 29.824 34.168 29.44 34.328C29.12 34.456 28.8 34.584 28.48 34.712C27.776 34.808 27.072 34.904 26.368 35H26.32C25.936 35.128 25.632 35.208 25.408 35.24C25.152 35.304 24.928 35.384 24.736 35.48C24.416 35.608 24.192 35.704 24.064 35.768C23.584 35.864 23.088 35.944 22.576 36.008C22.32 36.072 22.064 36.136 21.808 36.2C21.168 36.232 20.528 36.248 19.888 36.248C19.696 36.312 19.504 36.36 19.312 36.392C19.088 36.392 18.864 36.392 18.64 36.392C18.512 36.392 18.368 36.392 18.208 36.392C18.112 36.392 17.936 36.424 17.68 36.488C17.36 36.552 17.04 36.616 16.72 36.68C16.368 36.68 16.016 36.68 15.664 36.68C15.6 36.68 15.536 36.68 15.472 36.68C15.44 36.68 15.392 36.68 15.328 36.68C15.232 36.68 15.152 36.696 15.088 36.728C15.024 36.728 14.944 36.728 14.848 36.728C14.72 36.76 14.56 36.76 14.368 36.728C14.112 36.728 13.92 36.712 13.792 36.68C13.504 36.68 13.2 36.664 12.88 36.632C12.496 36.664 12.096 36.68 11.68 36.68C11.232 36.648 10.784 36.616 10.336 36.584C10.272 36.584 10.224 36.568 10.192 36.536C10.064 36.536 9.92 36.52 9.76 36.488C9.376 36.456 8.976 36.424 8.56 36.392C8.368 36.392 8.176 36.376 7.984 36.344C7.504 36.184 7.136 36.104 6.88 36.104C5.984 36.104 5.296 36.04 4.816 35.912C4.56 35.848 4.368 35.816 4.24 35.816C4.112 35.784 3.968 35.736 3.808 35.672C3.072 35.576 2.656 35.512 2.56 35.48C2.048 35.32 1.632 35.096 1.312 34.808C1.184 34.712 1.056 34.52 0.928 34.232C0.928 34.136 0.896 33.96 0.832001 33.704C0.704 33.288 0.576 32.872 0.448001 32.456C0.544 32.04 0.576 31.512 0.544 30.872C0.576 30.456 0.544 29.944 0.448001 29.336C0.448001 28.792 0.448001 28.248 0.448001 27.704C0.512 27.32 0.544 27 0.544 26.744C0.544 26.456 0.528 26.232 0.496 26.072C0.496 25.848 0.464 25.448 0.400001 24.872C0.368001 24.68 0.352 24.392 0.352 24.008C0.352 23.88 0.352 23.736 0.352 23.576C0.384001 23.512 0.400001 23.416 0.400001 23.288C0.432001 23.16 0.464 23.032 0.496 22.904C0.592 22.616 0.64 22.312 0.64 21.992C0.64 21.608 0.624 21.32 0.592 21.128C0.592 21.064 0.576 21.032 0.544 21.032C0.544 20.968 0.528 20.888 0.496 20.792V20.744C0.464 20.52 0.448001 20.152 0.448001 19.64C0.512 19.064 0.56 18.664 0.592 18.44C0.624 18.344 0.672 18.136 0.736001 17.816C0.736001 17.4 0.720001 16.968 0.688 16.52C0.720001 16.36 0.8 16.008 0.928 15.464C0.96 15.368 0.976 15.224 0.976 15.032C1.008 14.904 1.024 14.728 1.024 14.504C1.056 14.472 1.072 14.424 1.072 14.36C1.104 14.232 1.136 14.088 1.168 13.928C1.232 13.576 1.344 13.256 1.504 12.968C1.504 12.936 1.52 12.904 1.552 12.872C1.808 12.552 2.064 12.472 2.32 12.632C2.416 12.632 2.48 12.648 2.512 12.68C2.896 12.776 3.264 12.872 3.616 12.968C3.744 12.968 3.856 12.968 3.952 12.968C4.144 12.968 4.32 12.968 4.48 12.968C4.8 12.936 5.104 12.888 5.392 12.824C5.424 12.856 5.44 12.888 5.44 12.92C5.44 12.888 5.456 12.872 5.488 12.872C5.616 12.872 5.728 12.856 5.824 12.824C5.984 12.792 6.256 12.776 6.64 12.776C6.896 12.776 7.072 12.76 7.168 12.728C7.456 12.792 7.712 12.76 7.936 12.632C8.352 12.472 8.72 12.344 9.04 12.248C9.584 12.12 10.064 12.072 10.48 12.104C10.64 12.136 11.12 12.104 11.92 12.008C12.304 11.976 12.656 11.976 12.976 12.008C13.072 12.008 13.168 12.008 13.264 12.008C13.584 12.008 13.888 12.008 14.176 12.008C14.368 11.976 14.56 11.928 14.752 11.864C14.848 11.8 15.008 11.736 15.232 11.672C15.552 11.64 16.032 11.656 16.672 11.72C16.832 11.752 16.992 11.768 17.152 11.768C17.504 11.768 17.84 11.752 18.16 11.72C18.96 11.816 19.376 11.864 19.408 11.864C19.76 11.928 20.112 11.976 20.464 12.008C20.688 12.04 21.152 12.104 21.856 12.2C21.888 12.2 22.016 12.232 22.24 12.296C22.464 12.328 22.784 12.376 23.2 12.44C23.296 12.472 23.392 12.504 23.488 12.536C23.52 12.536 23.616 12.552 23.776 12.584C23.936 12.584 24.128 12.568 24.352 12.536C24.576 12.568 24.896 12.584 25.312 12.584C25.824 12.584 26.128 12.6 26.224 12.632C26.48 12.728 26.72 12.808 26.944 12.872C27.392 12.904 27.824 12.936 28.24 12.968C28.336 13 28.416 13.016 28.48 13.016C28.544 13.016 28.576 13.032 28.576 13.064C28.768 13.128 29.024 13.192 29.344 13.256C29.6 13.288 29.84 13.304 30.064 13.304C30.32 13.4 30.496 13.56 30.592 13.784C30.656 13.976 30.704 14.152 30.736 14.312C30.768 14.536 30.864 14.856 31.024 15.272C31.216 16.008 31.296 16.568 31.264 16.952C31.264 17.464 31.264 17.96 31.264 18.44C31.2 18.856 31.184 19.24 31.216 19.592C31.152 19.848 31.152 20.104 31.216 20.36C31.216 20.52 31.248 20.696 31.312 20.888C31.408 21.848 31.456 22.344 31.456 22.376C31.488 23.112 31.504 23.832 31.504 24.536C31.536 24.824 31.552 25.112 31.552 25.4C31.584 25.784 31.6 26.152 31.6 26.504C31.6 26.984 31.584 27.464 31.552 27.944C31.584 28.424 31.616 28.904 31.648 29.384ZM69.904 24.968C70.064 24.264 70.144 23.816 70.144 23.624C70.08 23.016 69.984 22.488 69.856 22.04C69.824 21.88 69.616 21.416 69.232 20.648C69.232 20.616 69.216 20.568 69.184 20.504C69.12 20.248 69.072 20.04 69.04 19.88C69.04 19.688 68.992 19.464 68.896 19.208C68.896 19.144 68.864 19.08 68.8 19.016C68.64 18.6 68.384 18.12 68.032 17.576C67.456 16.744 67.136 16.264 67.072 16.136C66.912 15.848 66.736 15.592 66.544 15.368C66.384 15.208 66.176 14.936 65.92 14.552C65.76 14.296 65.6 14.024 65.44 13.736C65.376 13.64 65.264 13.608 65.104 13.64C64.912 13.672 64.832 13.768 64.864 13.928C64.8 14.76 64.72 15.576 64.624 16.376C64.56 16.792 64.496 17.192 64.432 17.576C64.4 17.704 64.352 17.832 64.288 17.96C64.288 18.632 64.272 19.288 64.24 19.928C64.24 20.536 64.096 21.24 63.808 22.04C63.712 22.616 63.664 23.192 63.664 23.768C63.696 24.184 63.696 24.584 63.664 24.968C63.664 25 63.632 25.144 63.568 25.4C63.504 25.656 63.472 25.944 63.472 26.264C63.44 26.52 63.408 26.76 63.376 26.984C63.376 27.016 63.376 27.08 63.376 27.176C63.376 27.24 63.344 27.464 63.28 27.848C63.248 28.136 63.216 28.408 63.184 28.664C63.248 29.08 63.232 29.416 63.136 29.672C63.136 29.928 63.12 30.104 63.088 30.2C62.96 30.712 62.912 31.064 62.944 31.256C62.976 31.64 62.992 32.008 62.992 32.36C62.992 32.488 62.976 32.584 62.944 32.648C62.912 32.84 62.864 33.032 62.8 33.224C62.704 33.512 62.656 33.816 62.656 34.136C62.656 34.328 62.64 34.504 62.608 34.664C62.608 34.696 62.592 34.728 62.56 34.76C62.56 34.792 62.56 34.856 62.56 34.952C62.56 35.048 62.56 35.128 62.56 35.192C62.56 35.224 62.56 35.256 62.56 35.288C62.56 35.288 62.576 35.288 62.608 35.288C62.608 35.32 62.608 35.352 62.608 35.384C62.64 35.384 62.656 35.4 62.656 35.432C62.688 35.432 62.704 35.432 62.704 35.432C62.736 35.432 62.752 35.448 62.752 35.48C62.784 35.48 62.816 35.48 62.848 35.48C62.88 35.48 62.896 35.48 62.896 35.48C62.928 35.48 62.96 35.464 62.992 35.432C63.024 35.432 63.104 35.4 63.232 35.336C63.232 35.304 63.248 35.288 63.28 35.288C63.312 35.256 63.344 35.224 63.376 35.192C63.408 35.192 63.424 35.192 63.424 35.192C63.424 35.16 63.44 35.144 63.472 35.144C63.472 35.112 63.488 35.096 63.52 35.096C63.52 35.064 63.536 35.048 63.568 35.048V35C63.664 34.968 63.76 34.872 63.856 34.712C63.92 34.648 63.952 34.6 63.952 34.568C63.984 34.568 64 34.552 64 34.52C64.032 34.488 64.048 34.456 64.048 34.424C64.08 34.424 64.128 34.392 64.192 34.328C64.256 34.232 64.352 34.088 64.48 33.896C64.992 33.416 65.424 32.888 65.776 32.312C65.936 32.024 66.08 31.72 66.208 31.4C66.432 31.112 66.656 30.808 66.88 30.488C66.976 30.328 67.056 30.168 67.12 30.008C67.216 29.88 67.296 29.736 67.36 29.576C67.488 29.352 67.712 29.016 68.032 28.568C68.416 28.056 68.704 27.688 68.896 27.464C68.928 27.4 69.072 27.128 69.328 26.648C69.36 26.584 69.392 26.52 69.424 26.456V26.408C69.488 26.344 69.52 26.248 69.52 26.12C69.552 26.088 69.568 26.04 69.568 25.976C69.76 25.528 69.872 25.192 69.904 24.968ZM72.4 22.472C72.656 23.112 72.688 23.72 72.496 24.296C72.496 24.392 72.48 24.472 72.448 24.536C72.416 24.568 72.384 24.6 72.352 24.632C72.096 25.016 71.952 25.416 71.92 25.832C71.888 26.056 71.808 26.312 71.68 26.6C71.648 26.696 71.456 27.096 71.104 27.8C71.04 27.896 70.8 28.488 70.384 29.576C70.16 30.024 69.904 30.424 69.616 30.776C69.552 30.872 69.488 30.984 69.424 31.112C69.232 31.56 69.04 32.008 68.848 32.456C68.656 32.776 68.464 33.08 68.272 33.368C67.76 34.04 67.488 34.424 67.456 34.52C67.232 35 66.992 35.352 66.736 35.576C66.224 36.024 65.92 36.312 65.824 36.44C65.824 36.472 65.808 36.488 65.776 36.488C65.392 36.872 65.136 37.176 65.008 37.4C64.944 37.496 64.88 37.592 64.816 37.688C64.592 37.88 64.368 38.056 64.144 38.216C63.92 38.312 63.744 38.456 63.616 38.648C63.584 38.712 63.552 38.76 63.52 38.792C63.392 38.92 63.264 39.048 63.136 39.176C62.784 39.4 62.432 39.608 62.08 39.8C61.76 40.056 61.536 40.264 61.408 40.424C61.376 40.456 61.344 40.472 61.312 40.472C61.152 40.696 60.992 40.904 60.832 41.096C60.736 41.192 60.592 41.304 60.4 41.432C59.792 41.944 59.472 42.216 59.44 42.248C58.864 42.952 58.368 43.432 57.952 43.688C57.888 43.72 57.824 43.752 57.76 43.784C57.632 43.784 57.536 43.848 57.472 43.976C57.056 44.424 56.56 44.76 55.984 44.984C55.6 45.208 55.168 45.368 54.688 45.464C54.496 45.528 54.352 45.64 54.256 45.8C54.16 45.864 54.064 45.912 53.968 45.944C53.872 46.008 53.728 46.072 53.536 46.136C53.44 46.2 53.328 46.248 53.2 46.28H53.152H53.104C52.592 46.376 52.224 46.328 52 46.136C51.808 45.944 51.808 45.672 52 45.32C52.064 45.224 52.192 45.08 52.384 44.888C52.48 44.792 52.576 44.68 52.672 44.552C52.8 44.456 52.912 44.344 53.008 44.216C53.232 44.12 53.44 44.024 53.632 43.928C53.76 43.864 53.888 43.8 54.016 43.736C54.272 43.64 54.576 43.448 54.928 43.16C55.088 43.032 55.36 42.84 55.744 42.584C55.936 42.456 56.064 42.36 56.128 42.296C56.256 42.232 56.336 42.168 56.368 42.104C56.624 41.784 56.88 41.464 57.136 41.144C57.2 41.08 57.248 41.016 57.28 40.952C57.6 40.696 57.904 40.424 58.192 40.136C58.416 39.848 58.672 39.592 58.96 39.368C59.152 39.24 59.344 39.112 59.536 38.984C60.048 38.728 60.272 38.296 60.208 37.688V37.64C60.304 37 60.352 36.648 60.352 36.584C60.416 36.456 60.48 36.264 60.544 36.008C60.576 35.944 60.592 35.864 60.592 35.768C60.784 34.104 60.88 33.256 60.88 33.224C61.168 31.976 61.232 31.08 61.072 30.536C61.072 29.832 61.072 29.128 61.072 28.424C61.072 28.328 61.04 28.152 60.976 27.896C60.976 27.064 61.008 26.536 61.072 26.312V26.264V26.216C61.072 26.152 61.088 26.104 61.12 26.072V26.024C61.152 25.96 61.168 25.896 61.168 25.832C61.2 25.8 61.216 25.752 61.216 25.688V25.64C61.248 25.576 61.264 25.496 61.264 25.4C61.296 25.112 61.312 24.808 61.312 24.488C61.376 23.912 61.424 23.336 61.456 22.76C61.488 22.632 61.504 22.04 61.504 20.984C61.504 20.856 61.504 20.728 61.504 20.6C61.504 20.536 61.504 20.472 61.504 20.408C61.536 20.344 61.552 20.248 61.552 20.12C61.552 19.992 61.568 19.896 61.6 19.832C61.6 19.576 61.6 19.304 61.6 19.016C61.696 18.216 61.856 17.448 62.08 16.712C62.112 16.648 62.128 16.584 62.128 16.52C62.128 16.456 62.144 16.408 62.176 16.376C62.208 16.312 62.224 16.232 62.224 16.136C62.288 15.976 62.288 15.8 62.224 15.608C62.224 14.936 62.208 14.424 62.176 14.072C62.24 13.528 62.288 12.984 62.32 12.44C62.32 12.024 62.304 11.608 62.272 11.192C62.272 11.128 62.272 11.048 62.272 10.952C62.272 10.696 62.288 10.504 62.32 10.376C62.384 9.928 62.416 9.608 62.416 9.416C62.48 9.16 62.432 8.936 62.272 8.744C61.92 8.072 61.504 7.368 61.024 6.632C60.992 6.568 60.912 6.472 60.784 6.344C60.656 6.184 60.512 6.024 60.352 5.864C60.224 5.64 60.096 5.416 59.968 5.192C59.872 4.968 59.76 4.744 59.632 4.52C59.536 4.36 59.44 4.184 59.344 3.992C59.248 3.672 59.136 3.352 59.008 3.032C58.816 2.712 58.72 2.456 58.72 2.264C58.752 2.232 58.768 2.184 58.768 2.12C58.832 1.96 58.928 1.88 59.056 1.88C59.12 1.848 59.168 1.848 59.2 1.88C59.232 1.88 59.264 1.88 59.296 1.88C60 2.136 60.576 2.632 61.024 3.368C61.6 4.2 62.016 4.744 62.272 5C62.304 5.064 62.336 5.112 62.368 5.144C62.432 5.176 62.512 5.24 62.608 5.336C62.64 5.368 62.672 5.4 62.704 5.432C63.12 5.752 63.36 5.96 63.424 6.056C63.776 6.472 64.064 6.872 64.288 7.256C64.608 7.928 65.008 8.376 65.488 8.6C65.68 8.728 65.84 8.936 65.968 9.224C66.32 10.248 66.608 10.872 66.832 11.096C67.024 11.352 67.152 11.544 67.216 11.672C67.44 11.928 67.664 12.312 67.888 12.824C68.016 13.048 68.128 13.272 68.224 13.496C68.288 13.56 68.336 13.624 68.368 13.688C68.496 13.88 68.624 14.04 68.752 14.168C68.816 14.296 68.88 14.408 68.944 14.504C68.944 14.536 68.96 14.552 68.992 14.552C68.992 14.584 68.992 14.616 68.992 14.648C69.024 14.68 69.056 14.728 69.088 14.792C69.088 14.824 69.104 14.84 69.136 14.84C69.168 14.904 69.184 14.968 69.184 15.032C69.216 15.064 69.232 15.112 69.232 15.176C69.264 15.24 69.296 15.288 69.328 15.32C69.328 15.384 69.344 15.432 69.376 15.464C69.376 15.496 69.376 15.528 69.376 15.56C69.408 15.56 69.424 15.576 69.424 15.608C69.424 15.64 69.424 15.656 69.424 15.656C69.456 15.656 69.472 15.672 69.472 15.704C69.472 15.736 69.504 15.784 69.568 15.848C69.568 15.88 69.632 15.992 69.76 16.184C69.888 16.376 70 16.552 70.096 16.712C70.256 16.904 70.384 17.128 70.48 17.384C70.672 17.672 70.912 18.264 71.2 19.16C71.232 19.32 71.312 19.56 71.44 19.88C71.504 20.072 71.568 20.2 71.632 20.264C71.728 20.488 71.824 20.712 71.92 20.936C72.144 21.416 72.304 21.928 72.4 22.472ZM127.408 29.528C127.376 29.72 127.344 29.912 127.312 30.104C127.248 30.36 127.232 30.696 127.264 31.112C127.328 31.336 127.28 31.704 127.12 32.216C127.12 32.28 127.12 32.328 127.12 32.36C127.12 32.584 127.136 32.776 127.168 32.936C127.264 33.416 127.248 33.944 127.12 34.52C126.992 34.84 126.96 35.24 127.024 35.72C127.024 36.008 126.96 36.28 126.832 36.536C126.832 36.664 126.8 36.792 126.736 36.92C126.672 37.048 126.608 37.128 126.544 37.16C126.512 37.192 126.416 37.256 126.256 37.352C126 37.352 125.792 37.368 125.632 37.4C125.248 37.496 124.976 37.512 124.816 37.448C124.496 37.384 124.224 37.368 124 37.4C123.872 37.432 123.744 37.448 123.616 37.448C123.52 37.48 123.36 37.496 123.136 37.496C122.944 37.496 122.736 37.496 122.512 37.496C122.224 37.56 121.888 37.56 121.504 37.496H121.456C121.072 37.464 120.736 37.416 120.448 37.352C120.256 37.288 119.728 37.288 118.864 37.352C118.8 37.352 118.736 37.352 118.672 37.352C118.576 37.384 118.416 37.4 118.192 37.4C118.128 37.4 118.064 37.384 118 37.352C117.968 37.352 117.92 37.352 117.856 37.352H117.808L117.76 37.304C117.664 37.272 117.504 37.256 117.28 37.256C117.152 37.224 116.944 37.208 116.656 37.208C116.464 37.208 116.336 37.192 116.272 37.16C116.112 37.16 115.712 37.192 115.072 37.256C114.848 37.288 114.512 37.272 114.064 37.208C113.808 37.24 113.552 37.256 113.296 37.256C112.912 37.16 112.56 37.128 112.24 37.16H112.192C112.16 37.16 112.112 37.16 112.048 37.16C111.824 37.128 111.504 37.112 111.088 37.112C110.864 37.016 110.32 36.92 109.456 36.824C108.912 36.76 108.432 36.76 108.016 36.824C107.376 36.952 106.768 36.856 106.192 36.536C106.16 36.536 106.112 36.536 106.048 36.536C105.856 36.536 105.664 36.52 105.472 36.488C105.376 36.424 105.248 36.392 105.088 36.392C104.704 36.488 104.384 36.488 104.128 36.392C103.808 36.36 103.472 36.312 103.12 36.248C102.896 36.216 102.608 36.2 102.256 36.2C102.096 36.232 101.872 36.248 101.584 36.248H101.536C101.504 36.248 101.472 36.248 101.44 36.248C101.184 36.248 100.928 36.248 100.672 36.248C100.576 36.248 100.464 36.248 100.336 36.248C100.336 36.28 100.304 36.296 100.24 36.296H100.192H100.144C100.112 36.296 100.08 36.296 100.048 36.296C99.984 36.264 99.936 36.248 99.904 36.248C99.872 36.248 99.84 36.248 99.808 36.248C99.68 36.216 99.536 36.2 99.376 36.2C99.344 36.2 99.328 36.184 99.328 36.152C99.168 36.152 99.056 36.136 98.992 36.104C98.928 36.104 98.88 36.088 98.848 36.056C98.656 35.96 98.48 35.832 98.32 35.672C98.128 35.48 98.016 35.336 97.984 35.24C97.984 34.984 97.936 34.728 97.84 34.472C97.84 34.44 97.84 34.392 97.84 34.328C97.84 34.296 97.84 34.248 97.84 34.184C97.84 34.152 97.872 34.008 97.936 33.752C97.936 33.432 97.936 33.112 97.936 32.792C97.936 32.76 97.936 32.712 97.936 32.648C97.904 32.36 97.856 32.056 97.792 31.736C97.728 31.416 97.664 30.92 97.6 30.248C97.632 29.832 97.664 29.4 97.696 28.952C97.696 28.632 97.696 28.296 97.696 27.944C97.696 27.272 97.68 26.6 97.648 25.928C97.616 25.736 97.584 25.592 97.552 25.496V25.448C97.552 25.064 97.536 24.68 97.504 24.296C97.536 24.104 97.504 23.72 97.408 23.144C97.408 22.824 97.408 22.488 97.408 22.136C97.376 21.816 97.36 21.48 97.36 21.128C97.36 21.064 97.344 21 97.312 20.936C97.28 20.712 97.248 20.472 97.216 20.216C97.12 19.864 97.008 19.512 96.88 19.16C96.912 18.904 96.928 18.648 96.928 18.392C96.896 18.04 96.848 17.688 96.784 17.336C96.752 16.92 96.736 16.52 96.736 16.136C96.704 15.912 96.704 15.688 96.736 15.464C96.736 14.952 96.72 14.6 96.688 14.408C96.688 14.12 96.672 13.832 96.64 13.544C96.672 13.544 96.688 13.544 96.688 13.544C96.688 13.512 96.688 13.48 96.688 13.448C96.72 13.416 96.736 13.384 96.736 13.352C96.768 13.288 96.8 13.224 96.832 13.16C97.024 12.84 97.216 12.616 97.408 12.488C97.472 12.456 97.76 12.392 98.272 12.296C98.56 12.296 98.768 12.28 98.896 12.248C99.056 12.184 99.2 12.104 99.328 12.008V11.96C99.36 11.96 99.376 11.928 99.376 11.864C99.472 11.864 99.552 11.848 99.616 11.816C100.384 11.624 100.896 11.528 101.152 11.528C101.536 11.528 101.904 11.512 102.256 11.48C102.448 11.48 102.608 11.464 102.736 11.432C102.768 11.432 102.8 11.432 102.832 11.432C102.864 11.432 102.88 11.432 102.88 11.432C102.912 11.432 102.944 11.432 102.976 11.432C103.04 11.432 103.104 11.432 103.168 11.432C103.328 11.464 103.488 11.496 103.648 11.528C103.936 11.528 104.128 11.512 104.224 11.48C104.704 11.384 105.008 11.352 105.136 11.384C105.392 11.416 105.632 11.448 105.856 11.48C106.112 11.512 106.352 11.512 106.576 11.48C106.896 11.48 107.408 11.416 108.112 11.288C108.528 11.256 108.944 11.224 109.36 11.192C109.616 11.192 109.856 11.176 110.08 11.144C110.336 11.144 110.624 11.176 110.944 11.24C111.232 11.24 111.52 11.24 111.808 11.24C112.32 11.272 112.816 11.304 113.296 11.336C113.424 11.4 113.616 11.384 113.872 11.288C114.064 11.256 114.256 11.224 114.448 11.192C114.736 11.16 115.04 11.144 115.36 11.144C115.68 11.144 115.968 11.176 116.224 11.24C116.384 11.272 116.608 11.288 116.896 11.288C117.248 11.288 117.584 11.272 117.904 11.24C118.256 11.208 118.592 11.176 118.912 11.144C119.296 11.208 119.616 11.24 119.872 11.24C119.968 11.24 120.048 11.24 120.112 11.24C120.24 11.24 120.352 11.24 120.448 11.24C120.704 11.304 120.928 11.352 121.12 11.384C121.184 11.384 121.248 11.384 121.312 11.384C121.6 11.384 121.808 11.4 121.936 11.432C121.968 11.432 122 11.432 122.032 11.432C122.224 11.496 122.352 11.528 122.416 11.528C122.64 11.56 122.848 11.592 123.04 11.624C123.488 11.72 123.92 11.736 124.336 11.672C124.496 11.64 124.64 11.624 124.768 11.624C124.896 11.592 125.008 11.608 125.104 11.672C125.136 11.672 125.2 11.72 125.296 11.816C125.648 12.168 125.872 12.424 125.968 12.584C126.096 12.68 126.208 12.776 126.304 12.872C126.56 13.064 126.72 13.208 126.784 13.304C127.008 13.752 127.12 14.12 127.12 14.408C127.152 14.472 127.168 14.552 127.168 14.648C127.168 15 127.184 15.272 127.216 15.464C127.248 15.56 127.264 15.688 127.264 15.848C127.264 16.264 127.264 16.68 127.264 17.096C127.264 17.128 127.264 17.176 127.264 17.24C127.264 17.304 127.264 17.4 127.264 17.528C127.328 18.04 127.36 18.376 127.36 18.536C127.296 19.016 127.312 19.528 127.408 20.072C127.472 20.648 127.504 20.984 127.504 21.08C127.504 21.464 127.488 21.848 127.456 22.232C127.456 22.424 127.488 22.68 127.552 23C127.616 23.192 127.632 23.4 127.6 23.624C127.6 23.752 127.584 23.848 127.552 23.912C127.552 24.072 127.536 24.232 127.504 24.392C127.472 24.584 127.456 24.872 127.456 25.256C127.488 25.384 127.504 25.496 127.504 25.592C127.472 25.72 127.456 25.928 127.456 26.216C127.488 27.048 127.504 27.88 127.504 28.712C127.44 29.096 127.408 29.368 127.408 29.528ZM113.296 16.328C113.296 16.552 113.296 16.776 113.296 17C113.296 17.32 113.296 17.624 113.296 17.912C113.296 18.168 113.296 18.424 113.296 18.68C113.296 18.872 113.296 19.064 113.296 19.256C113.296 19.416 113.296 19.56 113.296 19.688C113.296 19.976 113.28 20.248 113.248 20.504C113.28 20.728 113.296 20.936 113.296 21.128C113.296 21.192 113.296 21.256 113.296 21.32C113.296 21.704 113.296 22.072 113.296 22.424C113.296 22.68 113.312 22.824 113.344 22.856C113.504 22.856 113.648 22.84 113.776 22.808C114.032 22.84 114.272 22.872 114.496 22.904C114.752 22.936 115.008 22.952 115.264 22.952C115.424 22.984 115.568 23.016 115.696 23.048C115.76 23.112 115.856 23.112 115.984 23.048C116.464 23.048 116.832 23.032 117.088 23C117.344 22.936 117.504 22.904 117.568 22.904C117.696 22.968 117.824 23.016 117.952 23.048C118.08 23.112 118.32 23.112 118.672 23.048C118.864 23.016 119.056 22.984 119.248 22.952C119.312 22.952 119.376 22.952 119.44 22.952C120.144 22.888 120.528 22.856 120.592 22.856C120.816 22.888 121.04 22.904 121.264 22.904C121.744 22.84 122.224 22.776 122.704 22.712C122.992 22.744 123.28 22.76 123.568 22.76C123.92 22.76 124.272 22.744 124.624 22.712C124.88 22.68 125.04 22.552 125.104 22.328C125.136 22.136 125.168 21.864 125.2 21.512C125.264 21.256 125.312 21 125.344 20.744C125.344 20.552 125.328 20.344 125.296 20.12C125.296 19.928 125.296 19.72 125.296 19.496C125.296 19.368 125.264 19.208 125.2 19.016C125.2 18.856 125.248 18.728 125.344 18.632V18.584C125.376 18.424 125.392 18.152 125.392 17.768C125.36 17.32 125.328 16.872 125.296 16.424C125.36 16.168 125.376 15.976 125.344 15.848C125.344 15.688 125.328 15.512 125.296 15.32C125.264 15.192 125.248 15.016 125.248 14.792C125.248 14.696 125.248 14.6 125.248 14.504C125.248 14.472 125.248 14.44 125.248 14.408C125.248 14.312 125.248 14.2 125.248 14.072C125.216 14.04 125.184 13.992 125.152 13.928C125.088 13.864 125.008 13.832 124.912 13.832C124.464 13.896 124.112 13.928 123.856 13.928C123.536 13.928 123.216 13.928 122.896 13.928C122.864 13.928 122.816 13.928 122.752 13.928C122.432 13.928 122.096 13.912 121.744 13.88C121.424 13.88 121.088 13.88 120.736 13.88C120.544 13.88 120.256 13.848 119.872 13.784C119.584 13.752 119.28 13.72 118.96 13.688C118.608 13.656 118.256 13.624 117.904 13.592C117.712 13.56 117.472 13.56 117.184 13.592C117.12 13.592 117.072 13.608 117.04 13.64C116.88 13.64 116.72 13.64 116.56 13.64C116.4 13.64 116.24 13.64 116.08 13.64C115.984 13.672 115.888 13.688 115.792 13.688C115.6 13.752 115.408 13.8 115.216 13.832C114.992 13.8 114.592 13.784 114.016 13.784C113.92 13.752 113.776 13.736 113.584 13.736C113.392 13.768 113.296 13.912 113.296 14.168C113.296 14.36 113.296 14.552 113.296 14.744C113.296 14.968 113.296 15.176 113.296 15.368C113.296 15.464 113.296 15.544 113.296 15.608C113.296 15.64 113.296 15.672 113.296 15.704C113.296 15.928 113.296 16.136 113.296 16.328ZM110.224 23.048C110.416 23.048 110.576 23.048 110.704 23.048C110.864 23.048 110.944 22.968 110.944 22.808C110.976 22.712 110.992 22.552 110.992 22.328C110.992 22.008 110.992 21.688 110.992 21.368C110.992 21.304 111.008 21.272 111.04 21.272C111.072 21.112 111.088 20.936 111.088 20.744C111.088 20.488 111.088 20.216 111.088 19.928C111.088 19.8 111.088 19.672 111.088 19.544C111.088 19.448 111.04 19.208 110.944 18.824C110.944 18.696 110.976 18.568 111.04 18.44C111.04 18.152 111.024 17.912 110.992 17.72V17.672C110.96 17.544 110.944 17.288 110.944 16.904C110.944 16.84 110.96 16.776 110.992 16.712C110.992 16.488 110.992 16.248 110.992 15.992C110.992 15.864 110.976 15.72 110.944 15.56C110.944 15.528 110.944 15.48 110.944 15.416C110.944 15.192 110.944 14.968 110.944 14.744C110.944 14.552 110.944 14.344 110.944 14.12C110.944 13.928 110.832 13.832 110.608 13.832C110.544 13.832 110.48 13.832 110.416 13.832C110.352 13.832 110.288 13.832 110.224 13.832C109.968 13.832 109.712 13.832 109.456 13.832H109.408C108.992 13.832 108.736 13.848 108.64 13.88C108.544 13.912 108.288 13.896 107.872 13.832C107.712 13.8 107.536 13.768 107.344 13.736C107.312 13.736 107.264 13.736 107.2 13.736H107.152C106.896 13.736 106.576 13.768 106.192 13.832C105.936 13.832 105.68 13.816 105.424 13.784C105.296 13.784 105.152 13.784 104.992 13.784C104.48 13.848 104.208 13.88 104.176 13.88C103.792 13.88 103.392 13.88 102.976 13.88C102.24 13.944 101.632 13.912 101.152 13.784C100.672 13.816 100.176 13.832 99.664 13.832C99.472 13.832 99.28 13.816 99.088 13.784C98.896 13.912 98.784 14.088 98.752 14.312C98.752 14.536 98.752 14.76 98.752 14.984C98.752 15.464 98.752 15.944 98.752 16.424C98.848 16.968 98.944 17.512 99.04 18.056C99.04 18.28 99.024 18.488 98.992 18.68C99.024 18.776 99.056 18.856 99.088 18.92C99.088 18.952 99.088 18.984 99.088 19.016C99.12 19.176 99.152 19.32 99.184 19.448C99.248 20.312 99.296 20.776 99.328 20.84C99.328 21.032 99.36 21.192 99.424 21.32C99.52 21.672 99.6 22.024 99.664 22.376C99.76 22.632 99.84 22.888 99.904 23.144C99.968 23.208 100.016 23.256 100.048 23.288C100.208 23.48 100.48 23.544 100.864 23.48C100.96 23.48 101.04 23.496 101.104 23.528C101.744 23.4 102.24 23.336 102.592 23.336C102.976 23.336 103.36 23.336 103.744 23.336C103.808 23.336 104.256 23.304 105.088 23.24C105.632 23.176 106.32 23.144 107.152 23.144C107.344 23.144 107.52 23.144 107.68 23.144C108 23.144 108.304 23.144 108.592 23.144C108.848 23.144 109.088 23.144 109.312 23.144C109.6 23.144 109.904 23.112 110.224 23.048ZM108.688 34.712C108.88 34.744 109.056 34.76 109.216 34.76C109.92 34.824 110.304 34.856 110.368 34.856C110.56 34.856 110.752 34.856 110.944 34.856C111.008 34.824 111.088 34.776 111.184 34.712C111.312 34.616 111.36 34.472 111.328 34.28C111.328 34.184 111.36 34.008 111.424 33.752C111.424 33.688 111.44 33.64 111.472 33.608C111.408 32.936 111.376 32.552 111.376 32.456C111.376 32.36 111.344 32.184 111.28 31.928C111.248 31.928 111.232 31.896 111.232 31.832C111.232 31.704 111.232 31.56 111.232 31.4V31.352C111.232 31.288 111.232 31.224 111.232 31.16C111.232 31.128 111.232 31.096 111.232 31.064C111.232 30.84 111.232 30.6 111.232 30.344C111.2 30.312 111.184 30.264 111.184 30.2C111.184 30.168 111.184 30.136 111.184 30.104V30.056C111.184 29.96 111.168 29.896 111.136 29.864C111.136 29.736 111.152 29.64 111.184 29.576C111.184 29.32 111.184 29.064 111.184 28.808C111.216 28.392 111.152 27.912 110.992 27.368C110.992 27.336 110.992 27.304 110.992 27.272C110.992 26.984 110.976 26.696 110.944 26.408C110.944 26.12 110.944 25.816 110.944 25.496C110.848 25.496 110.752 25.496 110.656 25.496C110.624 25.496 110.592 25.496 110.56 25.496C110.336 25.496 110.112 25.496 109.888 25.496C109.728 25.496 109.552 25.496 109.36 25.496C109.104 25.496 108.832 25.496 108.544 25.496C108.288 25.496 108.032 25.496 107.776 25.496C107.744 25.496 107.712 25.496 107.68 25.496C107.648 25.496 107.6 25.496 107.536 25.496C107.376 25.496 107.2 25.496 107.008 25.496C106.72 25.496 106.512 25.512 106.384 25.544C106.256 25.544 105.936 25.576 105.424 25.64C105.136 25.704 104.688 25.736 104.08 25.736C103.12 25.64 102.576 25.592 102.448 25.592C102.192 25.656 101.968 25.672 101.776 25.64C101.36 25.544 100.944 25.512 100.528 25.544C100.4 25.608 100.32 25.704 100.288 25.832C100.256 25.96 100.24 26.2 100.24 26.552C100.24 26.584 100.24 26.616 100.24 26.648C100.208 26.904 100.176 27.144 100.144 27.368C100.144 28.168 100.176 28.712 100.24 29C100.24 29.48 100.24 29.944 100.24 30.392C100.304 31 100.368 31.608 100.432 32.216C100.464 32.312 100.432 32.568 100.336 32.984C100.368 32.984 100.384 33.096 100.384 33.32C100.384 33.512 100.416 33.704 100.48 33.896C100.48 34.056 100.56 34.136 100.72 34.136C100.752 34.136 100.768 34.136 100.768 34.136C100.8 34.136 100.816 34.136 100.816 34.136C100.848 34.136 100.864 34.152 100.864 34.184C101.344 34.248 101.824 34.296 102.304 34.328C102.496 34.328 102.816 34.36 103.264 34.424C103.52 34.488 103.744 34.488 103.936 34.424C104.512 34.456 105.072 34.488 105.616 34.52C106 34.552 106.384 34.584 106.768 34.616C106.896 34.616 107.056 34.648 107.248 34.712C107.504 34.712 107.744 34.712 107.968 34.712C108.224 34.712 108.464 34.712 108.688 34.712ZM122.08 34.712C122.336 34.712 122.576 34.712 122.8 34.712C122.992 34.712 123.184 34.712 123.376 34.712C123.6 34.712 123.824 34.712 124.048 34.712C124.176 34.712 124.272 34.632 124.336 34.472C124.4 34.376 124.432 34.2 124.432 33.944C124.464 33.816 124.48 33.64 124.48 33.416C124.448 33.096 124.432 32.68 124.432 32.168C124.464 32.104 124.48 31.96 124.48 31.736C124.48 31.48 124.48 31.208 124.48 30.92C124.672 30.312 124.752 29.944 124.72 29.816C124.752 29.432 124.768 29.048 124.768 28.664C124.832 28.312 124.832 28.04 124.768 27.848C124.736 27.496 124.784 26.952 124.912 26.216C124.912 25.992 124.912 25.752 124.912 25.496C124.624 25.432 124.32 25.368 124 25.304C123.936 25.304 123.856 25.256 123.76 25.16C123.632 25.16 123.504 25.16 123.376 25.16C123.088 25.192 122.8 25.224 122.512 25.256C121.936 25.416 121.328 25.368 120.688 25.112C120.56 25.112 120.432 25.112 120.304 25.112C120.144 25.112 119.984 25.112 119.824 25.112C119.696 25.048 119.52 25.016 119.296 25.016C118.912 25.048 118.416 25.064 117.808 25.064C117.744 25.096 117.68 25.112 117.616 25.112C117.296 25.112 116.976 25.096 116.656 25.064C116.528 25 116.384 24.968 116.224 24.968C116 25 115.776 25.016 115.552 25.016C115.424 25.016 115.28 25.016 115.12 25.016C114.896 25.048 114.656 25.08 114.4 25.112C114.208 25.112 114.064 25.128 113.968 25.16C113.808 25.16 113.648 25.256 113.488 25.448C113.424 25.48 113.392 25.656 113.392 25.976C113.424 26.232 113.424 26.552 113.392 26.936C113.328 27.128 113.296 27.288 113.296 27.416C113.296 27.608 113.328 27.736 113.392 27.8C113.424 27.864 113.44 27.912 113.44 27.944C113.44 28.2 113.44 28.44 113.44 28.664C113.376 29.048 113.344 29.336 113.344 29.528C113.344 29.72 113.344 29.912 113.344 30.104C113.376 30.136 113.392 30.168 113.392 30.2C113.456 30.392 113.456 30.696 113.392 31.112C113.456 31.656 113.52 32.2 113.584 32.744C113.584 32.84 113.552 33.048 113.488 33.368C113.456 33.56 113.456 33.736 113.488 33.896C113.552 34.056 113.6 34.2 113.632 34.328C113.632 34.584 113.776 34.712 114.064 34.712C114.352 34.712 114.624 34.712 114.88 34.712C115.072 34.744 115.44 34.712 115.984 34.616C116.176 34.584 116.464 34.568 116.848 34.568C117.04 34.568 117.216 34.568 117.376 34.568C117.44 34.568 117.488 34.568 117.52 34.568C117.84 34.6 118.16 34.632 118.48 34.664C118.512 34.664 118.624 34.664 118.816 34.664C119.008 34.664 119.28 34.664 119.632 34.664C120.144 34.664 120.512 34.68 120.736 34.712C121.152 34.712 121.552 34.712 121.936 34.712C122 34.712 122.048 34.712 122.08 34.712ZM107.392 18.728C107.616 18.856 107.792 19.016 107.92 19.208C108.08 19.496 107.936 19.736 107.488 19.928C107.264 20.056 107.024 20.168 106.768 20.264C106.704 20.296 106.608 20.312 106.48 20.312C106.288 20.376 106.112 20.408 105.952 20.408C105.92 20.376 105.84 20.36 105.712 20.36C105.488 20.296 105.264 20.232 105.04 20.168C104.528 20.136 104.144 20.072 103.888 19.976C103.696 19.88 103.504 19.784 103.312 19.688C103.024 19.56 102.848 19.464 102.784 19.4C102.496 19.144 102.48 18.92 102.736 18.728C102.928 18.536 103.2 18.408 103.552 18.344C103.584 18.344 103.616 18.344 103.648 18.344C103.68 18.344 103.712 18.344 103.744 18.344C103.936 18.248 104.064 18.216 104.128 18.248C104.16 18.248 104.192 18.248 104.224 18.248C104.256 18.248 104.304 18.248 104.368 18.248C104.656 18.248 104.944 18.248 105.232 18.248C105.264 18.248 105.296 18.248 105.328 18.248C105.456 18.248 105.568 18.248 105.664 18.248C105.696 18.248 105.728 18.248 105.76 18.248C105.824 18.248 105.872 18.248 105.904 18.248C106 18.248 106.064 18.264 106.096 18.296C106.352 18.296 106.592 18.344 106.816 18.44C106.912 18.44 107.104 18.536 107.392 18.728ZM109.216 30.2C109.632 30.36 109.888 30.552 109.984 30.776C110.08 30.904 110.064 31.032 109.936 31.16C109.648 31.288 109.36 31.416 109.072 31.544C108.944 31.64 108.832 31.768 108.736 31.928C108.64 31.992 108.496 32.056 108.304 32.12C108.016 32.184 107.456 32.168 106.624 32.072C106.24 32.04 105.84 31.992 105.424 31.928C104.752 31.864 104.208 31.704 103.792 31.448C103.696 31.416 103.648 31.32 103.648 31.16C103.68 31.032 103.76 30.872 103.888 30.68C104.016 30.488 104.128 30.36 104.224 30.296C104.352 30.136 104.704 30.056 105.28 30.056C105.664 30.056 106.032 30.04 106.384 30.008C106.544 30.008 106.704 29.992 106.864 29.96C107.024 29.928 107.264 29.944 107.584 30.008C107.872 29.976 108.144 29.944 108.4 29.912C108.464 29.912 108.56 29.944 108.688 30.008C108.784 30.072 108.96 30.136 109.216 30.2ZM122.56 30.248C122.784 30.408 122.912 30.568 122.944 30.728C123.008 30.888 122.896 31.16 122.608 31.544C122.512 31.736 122.432 31.864 122.368 31.928H122.32C122.288 31.928 122.272 31.944 122.272 31.976C122.24 31.976 122.192 31.992 122.128 32.024C122.096 32.056 122.048 32.072 121.984 32.072H121.936C121.68 32.2 121.472 32.264 121.312 32.264C120.864 32.264 120.416 32.264 119.968 32.264C119.552 32.328 119.152 32.312 118.768 32.216C118.512 32.184 118.256 32.136 118 32.072C117.808 32.008 117.68 31.96 117.616 31.928H117.568C117.536 31.928 117.52 31.896 117.52 31.832C117.488 31.768 117.456 31.704 117.424 31.64H117.376C117.312 31.544 117.2 31.416 117.04 31.256C117.04 31.224 117.024 31.208 116.992 31.208C116.8 30.92 116.704 30.744 116.704 30.68C116.832 30.52 116.944 30.36 117.04 30.2C117.104 30.2 117.168 30.168 117.232 30.104C117.264 30.104 117.28 30.104 117.28 30.104C117.312 30.104 117.328 30.088 117.328 30.056C117.36 30.056 117.376 30.04 117.376 30.008C117.408 30.008 117.424 30.008 117.424 30.008C117.456 30.008 117.488 30.008 117.52 30.008C117.584 29.976 117.68 29.96 117.808 29.96C118.128 29.864 118.352 29.832 118.48 29.864C118.832 29.864 119.184 29.864 119.536 29.864C119.792 29.896 120.048 29.912 120.304 29.912C120.368 29.912 120.416 29.912 120.448 29.912C120.896 29.848 121.328 29.864 121.744 29.96C121.808 29.96 121.856 29.976 121.888 30.008C121.92 30.008 121.952 30.008 121.984 30.008C122.016 30.008 122.064 30.008 122.128 30.008C122.128 30.04 122.16 30.056 122.224 30.056C122.32 30.12 122.416 30.168 122.512 30.2C122.544 30.232 122.56 30.248 122.56 30.248ZM116.32 19.688C116.16 19.56 116.144 19.352 116.272 19.064C116.336 18.872 116.384 18.76 116.416 18.728C116.48 18.664 116.608 18.6 116.8 18.536C117.056 18.376 117.232 18.28 117.328 18.248C117.36 18.248 117.392 18.232 117.424 18.2C117.584 18.136 117.728 18.056 117.856 17.96C118.016 17.864 118.224 17.768 118.48 17.672C118.832 17.608 119.12 17.592 119.344 17.624C120.016 17.624 120.592 17.688 121.072 17.816C121.232 17.848 121.392 17.864 121.552 17.864C121.936 17.864 122.192 17.912 122.32 18.008C122.48 18.104 122.64 18.2 122.8 18.296C122.928 18.36 123.04 18.408 123.136 18.44C123.328 18.472 123.536 18.6 123.76 18.824C123.856 19.048 123.792 19.24 123.568 19.4C123.28 19.592 122.992 19.784 122.704 19.976C122.576 20.04 122.32 20.072 121.936 20.072C121.616 20.136 121.36 20.2 121.168 20.264C120.976 20.328 120.832 20.344 120.736 20.312C120.544 20.28 120.352 20.232 120.16 20.168C120.032 20.2 119.904 20.216 119.776 20.216C119.584 20.216 119.376 20.216 119.152 20.216C118.832 20.184 118.496 20.184 118.144 20.216C118.048 20.216 117.712 20.152 117.136 20.024C117.072 20.024 116.992 20.008 116.896 19.976C116.832 19.944 116.752 19.912 116.656 19.88C116.528 19.848 116.416 19.784 116.32 19.688ZM155.44 45.752C155.312 45.688 155.184 45.4 155.056 44.888C154.96 44.568 154.896 44.12 154.864 43.544C154.864 42.968 154.816 42.552 154.72 42.296C154.656 41.848 154.624 41.336 154.624 40.76C154.624 40.088 154.592 39.464 154.528 38.888C154.464 38.12 154.448 37.416 154.48 36.776C154.512 35.432 154.48 34.584 154.384 34.232C154.288 33.944 154.24 33.48 154.24 32.84C154.24 32.2 154.24 31.56 154.24 30.92C154.304 30.088 154.336 29.64 154.336 29.576C154.4 29.352 154.4 29.208 154.336 29.144C154.272 29.016 154.176 28.952 154.048 28.952C153.888 28.952 153.776 29.016 153.712 29.144C153.584 29.304 153.456 29.464 153.328 29.624C153.168 29.848 152.944 30.264 152.656 30.872C152.24 31.768 151.888 32.472 151.6 32.984C151.44 33.272 151.328 33.496 151.264 33.656C151.104 34.04 150.928 34.296 150.736 34.424C150.64 34.488 150.544 34.552 150.448 34.616C150.256 34.808 149.952 35 149.536 35.192C149.216 35.32 149.008 35.336 148.912 35.24C148.816 35.08 148.864 34.712 149.056 34.136C149.248 33.592 149.392 33.032 149.488 32.456C149.648 31.848 149.936 31.304 150.352 30.824C150.416 30.76 150.464 30.68 150.496 30.584C150.56 30.392 150.64 30.216 150.736 30.056C150.928 29.64 151.12 29.336 151.312 29.144C151.568 28.92 151.76 28.664 151.888 28.376C152.08 28.056 152.272 27.8 152.464 27.608C152.528 27.512 152.736 27.24 153.088 26.792C153.408 26.248 153.824 25.752 154.336 25.304C154.752 24.888 154.976 24.456 155.008 24.008C155.104 23.4 155.328 23.096 155.68 23.096C155.808 23.096 155.904 23.112 155.968 23.144C156.192 23.24 156.432 23.224 156.688 23.096C157.104 22.904 157.456 22.824 157.744 22.856C158.032 22.984 158.016 23.432 157.696 24.2C157.472 24.584 157.36 25.032 157.36 25.544C157.328 25.864 157.2 26.248 156.976 26.696L156.64 27.368V28.28C156.64 28.76 156.624 29.224 156.592 29.672C156.528 29.992 156.496 30.44 156.496 31.016C156.464 31.624 156.48 32.056 156.544 32.312C156.608 32.696 156.64 33.016 156.64 33.272C156.608 34.104 156.64 34.68 156.736 35C156.864 35.448 156.88 35.928 156.784 36.44C156.72 36.664 156.688 37.704 156.688 39.56C156.72 40.36 156.704 40.968 156.64 41.384C156.544 41.768 156.496 42.072 156.496 42.296C156.464 42.712 156.416 43.112 156.352 43.496C156.32 44.232 156.208 44.808 156.016 45.224C155.856 45.704 155.664 45.88 155.44 45.752ZM164.656 41.912C164.4 41.688 164.208 41.448 164.08 41.192C163.952 40.872 163.872 40.664 163.84 40.568C163.808 40.344 163.76 40.104 163.696 39.848C163.6 39.56 163.552 39.16 163.552 38.648L163.504 37.88L163.264 37.4L163.072 36.92V36.056C163.072 35.64 163.04 35.24 162.976 34.856C162.816 34.344 162.752 34.024 162.784 33.896C162.816 33.48 162.736 32.936 162.544 32.264C162.48 31.976 162.432 31.56 162.4 31.016C162.368 29.96 162.4 29.272 162.496 28.952C162.592 28.76 162.672 28.456 162.736 28.04C162.736 27.688 162.768 27.416 162.832 27.224C162.864 27.096 162.832 26.792 162.736 26.312C162.64 25.928 162.592 25.496 162.592 25.016C162.56 24.536 162.512 24.2 162.448 24.008C162.384 23.848 162.384 23.624 162.448 23.336C162.544 22.824 162.528 22.392 162.4 22.04C162.336 21.784 162.304 21.624 162.304 21.56C162.272 21.432 162.224 21.288 162.16 21.128C162.032 20.648 162 20.28 162.064 20.024C162.192 19.672 162.336 19.496 162.496 19.496C162.624 19.496 162.784 19.544 162.976 19.64C163.2 19.768 163.504 20.024 163.888 20.408C164.208 20.728 164.464 21.112 164.656 21.56C164.784 21.816 164.912 22.072 165.04 22.328C165.136 22.488 165.52 22.936 166.192 23.672C166.448 23.992 166.624 24.328 166.72 24.68C166.784 24.968 166.912 25.24 167.104 25.496C167.36 25.784 167.552 26.136 167.68 26.552C167.872 27.096 168.16 27.544 168.544 27.896C168.864 28.184 169.088 28.456 169.216 28.712C169.344 28.936 169.472 29.16 169.6 29.384C169.76 29.64 169.856 29.8 169.888 29.864C169.984 30.056 170.096 30.216 170.224 30.344C170.64 30.984 170.848 31.352 170.848 31.448C170.976 31.864 171.232 32.376 171.616 32.984C171.776 33.272 171.936 33.56 172.096 33.848C172.224 34.072 172.352 34.296 172.48 34.52C172.768 34.936 172.944 35.32 173.008 35.672C173.008 35.736 173.056 35.864 173.152 36.056C173.248 36.216 173.296 36.36 173.296 36.488C173.296 36.68 173.248 36.792 173.152 36.824C173.088 36.888 172.928 36.904 172.672 36.872C172.544 36.84 172.4 36.792 172.24 36.728C171.856 36.504 171.392 36.024 170.848 35.288C170.656 34.968 170.496 34.744 170.368 34.616C170.048 34.104 169.712 33.592 169.36 33.08C169.36 33.016 169.232 32.856 168.976 32.6C168.72 32.312 168.496 31.944 168.304 31.496L167.92 30.776L167.248 30.104C166.928 29.784 166.672 29.48 166.48 29.192C166.416 29 166.304 28.856 166.144 28.76C166.048 28.696 165.952 28.584 165.856 28.424C165.824 28.36 165.792 28.28 165.76 28.184C165.696 28.184 165.632 28.104 165.568 27.944C165.44 27.784 165.312 27.704 165.184 27.704C165.056 27.704 164.944 27.784 164.848 27.944C164.784 28.2 164.752 28.472 164.752 28.76C164.752 30.168 164.832 31.192 164.992 31.832C165.088 32.184 165.136 32.584 165.136 33.032C165.2 33.736 165.296 34.456 165.424 35.192C165.584 35.896 165.616 36.632 165.52 37.4C165.52 37.848 165.536 38.312 165.568 38.792C165.792 40.744 165.76 41.896 165.472 42.248C165.344 42.376 165.072 42.264 164.656 41.912ZM169.12 23.24C168.896 23.176 168.736 23.096 168.64 23C168.608 22.936 168.432 22.824 168.112 22.664C167.728 22.504 167.392 22.152 167.104 21.608C166.592 20.552 166.032 19.8 165.424 19.352C165.296 19.256 165.168 19.08 165.04 18.824C164.912 18.568 164.8 18.392 164.704 18.296C164.416 17.912 164.096 17.464 163.744 16.952C163.552 16.568 163.28 16.168 162.928 15.752C162.48 15.24 162.224 14.728 162.16 14.216C162.16 13.704 162.064 13.128 161.872 12.488C161.776 12.2 161.712 11.896 161.68 11.576C161.68 11.32 161.648 11 161.584 10.616C161.584 10.136 161.568 9.656 161.536 9.176C161.536 8.728 161.52 8.28 161.488 7.832C161.456 7.704 161.472 7.464 161.536 7.112C161.632 6.792 161.728 6.456 161.824 6.104C161.984 5.56 162.192 5.128 162.448 4.808C162.736 4.52 162.944 4.44 163.072 4.568C163.328 4.92 163.52 5.368 163.648 5.912C163.776 6.744 163.792 7.4 163.696 7.88C163.6 8.584 163.632 9.336 163.792 10.136C163.856 10.68 163.936 11.032 164.032 11.192C164.096 11.416 164.144 11.752 164.176 12.2C164.176 12.68 164.208 12.984 164.272 13.112C164.272 13.208 164.368 13.352 164.56 13.544C164.912 13.96 165.088 14.248 165.088 14.408C165.088 14.504 165.136 14.648 165.232 14.84C165.36 15.128 165.584 15.368 165.904 15.56C166.16 15.72 166.32 16.008 166.384 16.424C166.448 16.68 166.576 16.904 166.768 17.096C166.832 17.192 166.896 17.288 166.96 17.384C166.992 17.48 167.04 17.56 167.104 17.624C167.264 17.848 167.36 18.04 167.392 18.2C167.584 18.456 167.776 18.712 167.968 18.968C168.192 19.192 168.416 19.496 168.64 19.88C168.736 20.168 168.944 20.52 169.264 20.936C169.552 21.352 169.696 21.592 169.696 21.656C169.696 21.72 169.728 21.848 169.792 22.04C170.016 22.52 170.096 22.84 170.032 23C169.936 23.256 169.776 23.352 169.552 23.288C169.36 23.288 169.216 23.272 169.12 23.24ZM148.192 23C148.128 22.936 148.112 22.776 148.144 22.52C148.208 22.072 148.496 21.528 149.008 20.888C149.136 20.664 149.264 20.424 149.392 20.168C149.52 19.88 149.744 19.576 150.064 19.256C150.224 19.064 150.384 18.872 150.544 18.68C150.544 18.648 150.624 18.552 150.784 18.392C151.392 17.88 151.696 17.592 151.696 17.528C151.728 17.432 151.776 17.336 151.84 17.24C151.936 17.08 152.112 16.936 152.368 16.808C152.624 16.712 152.864 16.488 153.088 16.136C153.184 16.04 153.296 15.896 153.424 15.704C153.616 15.512 153.696 15.176 153.664 14.696C153.664 11.336 153.712 9.368 153.808 8.792C153.84 8.696 153.888 8.392 153.952 7.88C153.984 7.464 154.064 7.096 154.192 6.776C154.384 6.424 154.496 6.104 154.528 5.816C154.656 5.08 154.976 4.664 155.488 4.568C155.648 4.536 155.76 4.552 155.824 4.616C155.92 4.712 155.968 4.776 155.968 4.808C156.16 5.704 156.192 7.128 156.064 9.08C156.032 9.528 156.048 9.88 156.112 10.136C156.176 10.552 156.192 10.872 156.16 11.096C156.064 12.44 156.064 13.32 156.16 13.736C156.224 14.088 156.208 14.488 156.112 14.936C156.112 15.064 156.064 15.272 155.968 15.56C155.872 16.168 155.664 16.648 155.344 17C155.056 17.288 154.864 17.464 154.768 17.528C154.544 17.752 154.304 17.96 154.048 18.152C153.6 18.6 153.312 18.872 153.184 18.968C152.896 19.192 152.72 19.352 152.656 19.448C152.08 20.28 151.776 20.712 151.744 20.744C151.68 20.872 151.584 21 151.456 21.128C151.424 21.16 151.376 21.24 151.312 21.368C151.184 21.592 150.816 21.864 150.208 22.184C150.144 22.216 149.952 22.344 149.632 22.568C149.376 22.824 149.024 22.984 148.576 23.048C148.448 23.08 148.32 23.064 148.192 23Z" fill="white"/>
</svg>
