<svg width="176" height="47" viewBox="0 0 176 47" fill="none" xmlns="http://www.w3.org/2000/svg">
<path d="M19.44 43.88C19.056 43.784 18.704 43.768 18.384 43.832C18.096 43.896 17.856 43.912 17.664 43.88C17.28 43.784 16.8 43.72 16.224 43.688C15.872 43.656 15.52 43.608 15.168 43.544C15.008 43.512 14.624 43.496 14.016 43.496C13.344 43.432 12.896 43.384 12.672 43.352C12.32 43.256 11.808 43.208 11.136 43.208C10.496 43.208 10.128 43.176 10.032 43.112C9.808 42.984 9.6 42.776 9.408 42.488C9.344 42.296 9.264 42.152 9.168 42.056L9.024 41.864L9.072 40.808C9.136 39.592 9.264 38.536 9.456 37.64C9.52 37.384 9.568 37.112 9.6 36.824C9.6 36.504 9.632 36.248 9.696 36.056C9.824 35.672 9.904 34.968 9.936 33.944C9.968 32.952 10.048 32.328 10.176 32.072C10.272 31.88 10.384 31.688 10.512 31.496C10.704 31.112 11.008 30.904 11.424 30.872C11.584 30.872 11.76 30.824 11.952 30.728C12.08 30.664 12.512 30.616 13.248 30.584C13.92 30.584 14.4 30.536 14.688 30.44C15.168 30.248 15.696 30.136 16.272 30.104C16.528 30.072 16.848 30.008 17.232 29.912L17.664 29.72H19.536C20.912 29.72 21.696 29.736 21.888 29.768C22.112 29.8 22.368 29.784 22.656 29.72C22.72 29.72 23.024 29.672 23.568 29.576C24.112 29.512 24.528 29.432 24.816 29.336C25.2 29.24 25.6 29.208 26.016 29.24C26.4 29.272 26.784 29.256 27.168 29.192C27.936 29.064 28.592 29.032 29.136 29.096C29.552 29.128 29.856 29.112 30.048 29.048C30.4 28.984 30.688 28.968 30.912 29C31.648 29.032 32.272 28.984 32.784 28.856C33.616 28.632 34.4 28.568 35.136 28.664C35.456 28.728 35.76 28.76 36.048 28.76C36.816 28.888 37.264 28.984 37.392 29.048C37.456 29.08 37.552 29.192 37.68 29.384C37.776 29.512 37.872 29.64 37.968 29.768C38.16 29.992 38.128 30.232 37.872 30.488C37.68 30.648 37.504 30.744 37.344 30.776C36.992 30.808 36.768 30.92 36.672 31.112C36.64 31.176 36.64 31.688 36.672 32.648L36.72 34.088L36.528 34.76C36.336 35.368 36.24 36.056 36.24 36.824C36.24 37.272 36.192 37.64 36.096 37.928C35.968 38.856 35.936 39.64 36 40.28C36.128 40.568 36.336 40.744 36.624 40.808C37.04 41.064 37.136 41.4 36.912 41.816C36.816 41.976 36.608 42.2 36.288 42.488C35.936 42.808 35.68 42.984 35.52 43.016C35.328 43.08 35.216 43.112 35.184 43.112C35.056 43.112 34.96 43.144 34.896 43.208C34.544 43.336 34 43.4 33.264 43.4C32.592 43.464 32.112 43.528 31.824 43.592C31.472 43.656 31.088 43.672 30.672 43.64C29.808 43.608 29.2 43.624 28.848 43.688C28.656 43.752 28.272 43.736 27.696 43.64C27.344 43.576 27.088 43.56 26.928 43.592C26.544 43.656 26.08 43.672 25.536 43.64C24.96 43.672 24.384 43.688 23.808 43.688C23.488 43.72 23.04 43.704 22.464 43.64C21.92 43.576 21.392 43.64 20.88 43.832C20.56 43.992 20.08 44.008 19.44 43.88ZM13.488 41.336C14.224 41.272 15.904 41.272 18.528 41.336C19.296 41.368 20.08 41.304 20.88 41.144C21.264 41.048 21.616 41.016 21.936 41.048C22.352 41.048 22.752 41.032 23.136 41C23.392 40.968 23.824 41 24.432 41.096C25.2 41.224 25.824 41.256 26.304 41.192C26.752 41.192 27.2 41.176 27.648 41.144C28.128 41.144 28.56 41.112 28.944 41.048C29.328 40.984 29.664 40.952 29.952 40.952C30.304 40.92 30.656 40.872 31.008 40.808C31.36 40.744 31.648 40.728 31.872 40.76C32.096 40.824 32.288 40.824 32.448 40.76C32.64 40.728 32.816 40.68 32.976 40.616C33.232 40.552 33.408 40.456 33.504 40.328C33.6 40.2 33.712 39.96 33.84 39.608C34 39.032 34.064 38.472 34.032 37.928C34 37.704 33.984 37.416 33.984 37.064C34.016 36.904 34.032 36.6 34.032 36.152C34.128 35.384 34.192 34.936 34.224 34.808C34.256 34.52 34.288 34.216 34.32 33.896C34.32 33.288 34.352 32.792 34.416 32.408C34.544 31.736 34.464 31.368 34.176 31.304C34.08 31.24 33.632 31.208 32.832 31.208C32.224 31.208 31.664 31.24 31.152 31.304C30.96 31.368 30.736 31.4 30.48 31.4C30.288 31.464 30.08 31.512 29.856 31.544C29.472 31.64 29.232 31.672 29.136 31.64C28.944 31.576 28.592 31.544 28.08 31.544C27.728 31.512 27.344 31.528 26.928 31.592C26.544 31.656 26.176 31.672 25.824 31.64C25.472 31.672 25.104 31.688 24.72 31.688C23.792 31.848 23.104 31.896 22.656 31.832C22.304 31.736 21.984 31.736 21.696 31.832C21.472 31.896 20.912 31.912 20.016 31.88C19.664 31.848 19.2 31.88 18.624 31.976C18.368 32.008 18 32.072 17.52 32.168C17.2 32.232 16.976 32.264 16.848 32.264C16.24 32.424 15.808 32.504 15.552 32.504C15.296 32.504 15.104 32.536 14.976 32.6C14.72 32.696 14.272 32.776 13.632 32.84C13.44 32.872 13.184 32.952 12.864 33.08C12.704 33.176 12.528 33.256 12.336 33.32C12.112 33.384 11.984 33.656 11.952 34.136C11.888 35.512 11.776 36.536 11.616 37.208C11.584 37.272 11.536 37.528 11.472 37.976C11.44 38.264 11.392 38.552 11.328 38.84C11.296 39.064 11.248 39.288 11.184 39.512C11.184 39.704 11.152 39.896 11.088 40.088C11.024 40.344 11.008 40.536 11.04 40.664C11.072 41.08 11.264 41.304 11.616 41.336C12.032 41.464 12.656 41.464 13.488 41.336ZM8.88 31.16C8.848 31.064 8.8 30.968 8.736 30.872C8.672 30.584 8.72 30.2 8.88 29.72C8.976 29.464 9.04 29.208 9.072 28.952C9.264 28.216 9.504 27.64 9.792 27.224C10.016 26.968 10.16 26.76 10.224 26.6C10.288 26.472 10.352 26.376 10.416 26.312C10.64 26.088 10.816 25.736 10.944 25.256C11.104 24.968 11.248 24.664 11.376 24.344C11.536 24.024 11.648 23.768 11.712 23.576C11.776 23.352 11.84 23.208 11.904 23.144C12 22.984 12.08 22.824 12.144 22.664C12.272 22.408 12.4 22.216 12.528 22.088C12.72 21.832 12.832 21.672 12.864 21.608C12.992 21.352 13.104 21.144 13.2 20.984C13.296 20.792 13.392 20.6 13.488 20.408C13.488 20.28 13.52 20.184 13.584 20.12C13.648 19.992 13.696 19.848 13.728 19.688C13.76 19.56 13.872 19.272 14.064 18.824L14.352 18.248L14.4 17.336C14.4 16.504 14.48 16.008 14.64 15.848C14.928 15.624 15.232 15.656 15.552 15.944C15.744 16.136 15.92 16.248 16.08 16.28C16.688 16.408 17.088 16.792 17.28 17.432C17.44 17.752 17.536 17.928 17.568 17.96C17.696 18.088 18.016 18.552 18.528 19.352C19.008 19.96 19.36 20.392 19.584 20.648C20.192 21.352 20.64 21.832 20.928 22.088C21.12 22.184 21.264 22.328 21.36 22.52C21.456 22.904 21.808 23.4 22.416 24.008C22.864 24.552 23.136 24.904 23.232 25.064C23.488 25.384 23.632 25.56 23.664 25.592C23.856 25.656 24 25.608 24.096 25.448C24.128 25.384 24.208 25.288 24.336 25.16C24.464 25.032 24.624 24.744 24.816 24.296C25.104 23.816 25.264 23.512 25.296 23.384C25.488 23.096 25.68 22.632 25.872 21.992C25.872 21.832 25.936 21.688 26.064 21.56C26.256 21.272 26.368 21.096 26.4 21.032C26.464 20.84 26.56 20.632 26.688 20.408C26.784 20.184 26.864 19.96 26.928 19.736C27.056 19.256 27.28 18.84 27.6 18.488C27.664 18.36 27.792 18.152 27.984 17.864C28.08 17.608 28.256 17.352 28.512 17.096C28.896 16.648 29.168 16.296 29.328 16.04C29.776 15.432 30.256 15.096 30.768 15.032C30.992 15.064 31.152 15.16 31.248 15.32C31.344 15.48 31.456 15.816 31.584 16.328C31.68 16.584 31.744 16.728 31.776 16.76C31.936 16.984 32.064 17.272 32.16 17.624C32.224 18.008 32.416 18.408 32.736 18.824C32.928 19.016 33.088 19.24 33.216 19.496C33.568 20.392 33.952 21.144 34.368 21.752C34.688 22.2 34.864 22.568 34.896 22.856C35.024 23.464 35.008 23.928 34.848 24.248C34.752 24.504 34.64 24.648 34.512 24.68C34.288 24.744 33.984 24.584 33.6 24.2C33.312 23.912 33.104 23.592 32.976 23.24C32.848 22.952 32.704 22.648 32.544 22.328C32.224 21.784 31.984 21.256 31.824 20.744C31.664 20.232 31.392 19.624 31.008 18.92C30.784 18.504 30.56 18.296 30.336 18.296C29.856 18.584 29.392 19.24 28.944 20.264C28.848 20.552 28.736 20.776 28.608 20.936C28.224 21.608 28.016 22.024 27.984 22.184C27.984 22.28 27.92 22.392 27.792 22.52C27.6 22.712 27.44 23 27.312 23.384C27.184 23.8 26.992 24.136 26.736 24.392C26.576 24.616 26.4 24.952 26.208 25.4C26.016 25.848 25.776 26.232 25.488 26.552C25.328 26.744 25.136 27.032 24.912 27.416C24.656 27.96 24.32 28.36 23.904 28.616C23.776 28.68 23.664 28.696 23.568 28.664C23.248 28.536 22.976 28.168 22.752 27.56C22.592 27.272 22.432 26.984 22.272 26.696C22.144 26.504 21.952 26.296 21.696 26.072C21.408 25.88 21.184 25.672 21.024 25.448C20.864 25.224 20.656 25 20.4 24.776C20.112 24.488 19.904 24.248 19.776 24.056C19.52 23.608 19.248 23.192 18.96 22.808C18.672 22.52 18.448 22.328 18.288 22.232C17.936 21.976 17.632 21.672 17.376 21.32C17.184 21.032 16.992 20.792 16.8 20.6C16.704 20.472 16.608 20.344 16.512 20.216C16.352 19.992 16.192 19.832 16.032 19.736C16 19.736 15.952 19.768 15.888 19.832C15.568 20.216 15.408 20.472 15.408 20.6C15.12 21.08 14.832 21.56 14.544 22.04C14.48 22.2 14.4 22.36 14.304 22.52C14.208 22.744 14.096 22.968 13.968 23.192C13.904 23.32 13.792 23.624 13.632 24.104C13.568 24.488 13.488 24.728 13.392 24.824C13.296 24.984 13.2 25.256 13.104 25.64C13.104 25.672 13.04 25.784 12.912 25.976C12.784 26.168 12.656 26.36 12.528 26.552C12.496 26.648 12.336 26.92 12.048 27.368C11.568 28.136 11.264 28.728 11.136 29.144C11.072 29.4 10.96 29.688 10.8 30.008C10.608 30.424 10.448 30.664 10.32 30.728C9.616 31.208 9.136 31.352 8.88 31.16ZM24 20.024C23.776 19.864 23.616 19.64 23.52 19.352C23.456 19.224 23.312 19.048 23.088 18.824C22.384 18.056 21.664 17.272 20.928 16.472C20.864 16.344 20.72 16.2 20.496 16.04C20.144 15.72 19.92 15.416 19.824 15.128C19.792 15 19.744 14.856 19.68 14.696C19.648 14.6 19.488 14.408 19.2 14.12C18.88 13.8 18.704 13.608 18.672 13.544C18.576 13.416 18.48 13.272 18.384 13.112C18.352 13.08 18.208 12.856 17.952 12.44C17.824 12.184 17.6 11.896 17.28 11.576C17.12 11.384 16.896 11.096 16.608 10.712C16.32 10.2 16.08 9.944 15.888 9.944C15.728 9.944 15.52 10.136 15.264 10.52C15.136 10.776 15.008 11.032 14.88 11.288C14.592 11.768 14.368 12.12 14.208 12.344C13.888 12.856 13.696 13.192 13.632 13.352C13.568 13.608 13.44 13.816 13.248 13.976C13.152 14.104 13.008 14.328 12.816 14.648C12.72 14.84 12.624 15.032 12.528 15.224C12.4 15.48 12.304 15.688 12.24 15.848C12.048 16.328 11.856 16.696 11.664 16.952C11.568 17.016 11.472 17.128 11.376 17.288C11.12 17.8 10.848 18.2 10.56 18.488C10.304 18.68 10 18.776 9.648 18.776C9.328 18.808 9.088 18.728 8.928 18.536C8.832 18.408 8.848 18.152 8.976 17.768C9.04 17.512 9.104 17.256 9.168 17C9.2 16.712 9.328 16.392 9.552 16.04C9.68 15.784 9.808 15.528 9.936 15.272C9.968 15.144 10.064 14.968 10.224 14.744C10.544 14.424 10.736 14.056 10.8 13.64C10.832 13.352 10.928 13.16 11.088 13.064C11.28 12.872 11.408 12.632 11.472 12.344C11.568 12.216 11.648 12.088 11.712 11.96C11.968 11.704 12.32 11.192 12.768 10.424C13.152 9.752 13.568 9.192 14.016 8.744C14.944 7.752 15.744 7.464 16.416 7.88C16.608 8.008 16.72 8.12 16.752 8.216C16.912 8.376 17.056 8.504 17.184 8.6C17.312 8.696 17.456 8.824 17.616 8.984C17.936 9.432 18.192 9.688 18.384 9.752C18.512 9.88 18.624 9.992 18.72 10.088C19.488 10.952 19.872 11.4 19.872 11.432C19.904 11.464 19.936 11.48 19.968 11.48C20.32 11.736 20.576 11.992 20.736 12.248C20.736 12.408 20.944 12.696 21.36 13.112C21.776 13.368 21.984 13.544 21.984 13.64C21.984 13.736 22.256 14.088 22.8 14.696C23.024 15.016 23.168 15.24 23.232 15.368C23.36 15.624 23.616 16.056 24 16.664C24.128 16.792 24.224 16.808 24.288 16.712C24.384 16.488 24.48 16.248 24.576 15.992C24.704 15.704 24.816 15.4 24.912 15.08C24.976 14.952 25.04 14.792 25.104 14.6C25.232 14.216 25.344 13.896 25.44 13.64C25.632 13.192 25.728 12.936 25.728 12.872C25.728 12.68 25.84 12.44 26.064 12.152C26.48 11.672 26.8 11.128 27.024 10.52C27.088 10.2 27.216 9.88 27.408 9.56C27.568 9.176 27.728 8.792 27.888 8.408C28.08 7.928 28.224 7.608 28.32 7.448C28.576 6.968 28.736 6.6 28.8 6.344C28.8 6.216 28.88 6.04 29.04 5.816C29.168 5.496 29.232 5.288 29.232 5.192C29.328 4.936 29.456 4.76 29.616 4.664C29.776 4.6 30.016 4.536 30.336 4.472L30.96 4.28L31.152 4.424C31.408 4.552 31.584 4.888 31.68 5.432C31.744 5.816 31.792 6.056 31.824 6.152C31.856 6.216 31.92 6.424 32.016 6.776C32.176 7.256 32.32 7.592 32.448 7.784C32.768 8.104 33.152 8.808 33.6 9.896C33.824 10.472 34.048 10.904 34.272 11.192C34.496 11.416 34.64 11.592 34.704 11.72C34.832 11.912 34.912 12.024 34.944 12.056C35.04 12.216 35.136 12.376 35.232 12.536C35.424 12.824 35.616 13.112 35.808 13.4C36.064 13.688 36.224 13.912 36.288 14.072C36.544 14.616 36.576 15.096 36.384 15.512C36.288 15.768 36.112 15.864 35.856 15.8C35.088 15.288 34.656 14.984 34.56 14.888C34.304 14.632 34.128 14.376 34.032 14.12C33.968 13.928 33.76 13.592 33.408 13.112C33.216 12.792 33.024 12.472 32.832 12.152C32.704 11.8 32.48 11.416 32.16 11C31.872 10.584 31.68 10.28 31.584 10.088C31.232 9.288 30.96 8.744 30.768 8.456C30.608 8.296 30.496 8.072 30.432 7.784C30.336 7.56 30.24 7.464 30.144 7.496C30.08 7.56 30.048 7.704 30.048 7.928C29.92 8.472 29.728 9.048 29.472 9.656C29.28 10.04 29.12 10.424 28.992 10.808C28.864 11.48 28.64 12.04 28.32 12.488C28.064 12.872 27.856 13.288 27.696 13.736C27.6 14.024 27.504 14.28 27.408 14.504C27.216 15.272 27.104 15.736 27.072 15.896C26.912 16.568 26.704 17.112 26.448 17.528C26.384 17.656 26.32 17.768 26.256 17.864C26.16 18.056 26.08 18.184 26.016 18.248C25.888 18.376 25.76 18.6 25.632 18.92C25.376 19.368 25.152 19.656 24.96 19.784C24.576 20.072 24.256 20.152 24 20.024ZM24.816 38.552C24.368 38.456 23.52 38.376 22.272 38.312C21.76 38.28 21.376 38.296 21.12 38.36C20.544 38.52 20.128 38.6 19.872 38.6C19.52 38.6 19.152 38.44 18.768 38.12C18.576 37.928 18.448 37.816 18.384 37.784C18.064 37.56 18.032 37.32 18.288 37.064C18.512 36.776 18.848 36.52 19.296 36.296C19.424 36.232 19.6 36.2 19.824 36.2C20.112 36.168 20.4 36.12 20.688 36.056C21.072 36.024 21.44 36.024 21.792 36.056C22.304 36.088 22.8 36.104 23.28 36.104C23.6 36.072 24 36.056 24.48 36.056C24.832 36.088 25.184 36.104 25.536 36.104C26.08 36.104 26.672 36.168 27.312 36.296C28.4 36.456 29.024 36.68 29.184 36.968C29.312 37.064 29.424 37.16 29.52 37.256C29.584 37.256 29.616 37.288 29.616 37.352C29.68 37.512 29.6 37.704 29.376 37.928C29.152 38.152 28.384 38.296 27.072 38.36C26.56 38.424 26.224 38.472 26.064 38.504C25.68 38.632 25.264 38.648 24.816 38.552ZM73.824 44.984C73.6 44.984 73.36 44.968 73.104 44.936C72.88 44.808 72.576 44.744 72.192 44.744C71.392 44.744 70.848 44.632 70.56 44.408C70.368 44.216 70.288 44.008 70.32 43.784C70.352 43.496 70.48 43.24 70.704 43.016C71.024 42.728 71.648 42.536 72.576 42.44C73.12 42.376 73.44 42.216 73.536 41.96C73.696 41.64 73.76 41.016 73.728 40.088C73.728 39.48 73.712 38.856 73.68 38.216C73.68 37.832 73.664 37.448 73.632 37.064C73.6 36.712 73.6 36.376 73.632 36.056C73.632 35.832 73.632 35.608 73.632 35.384C73.504 34.616 73.44 32.952 73.44 30.392C73.408 28.76 73.456 27.624 73.584 26.984C73.648 26.568 73.664 26.264 73.632 26.072C73.6 25.368 73.6 24.456 73.632 23.336C73.664 22.824 73.68 22.408 73.68 22.088C73.648 21.992 73.632 21.752 73.632 21.368C73.632 20.92 73.536 20.648 73.344 20.552C73.12 20.488 72.752 20.568 72.24 20.792C71.92 20.888 71.6 20.984 71.28 21.08C70.768 21.144 70.24 21.304 69.696 21.56C69.184 21.848 68.688 22.008 68.208 22.04C67.92 22.072 67.68 22.152 67.488 22.28C67.168 22.44 66.976 22.632 66.912 22.856C66.848 23.016 66.816 23.528 66.816 24.392C66.816 25.16 66.8 25.928 66.768 26.696C66.736 27.368 66.672 27.8 66.576 27.992C66.384 28.408 66.16 28.664 65.904 28.76C65.744 28.92 65.52 28.824 65.232 28.472L64.896 28.088L64.608 28.136C64.448 28.168 64.288 28.184 64.128 28.184C63.744 28.184 63.36 28.184 62.976 28.184C62.528 28.12 62.128 28.12 61.776 28.184C61.584 28.216 61.152 28.264 60.48 28.328C59.904 28.36 59.312 28.376 58.704 28.376C58.288 28.408 57.84 28.392 57.36 28.328C56.752 28.264 56.304 28.088 56.016 27.8C55.696 27.48 55.648 27.224 55.872 27.032C56.224 26.744 56.608 26.584 57.024 26.552C57.216 26.552 57.424 26.504 57.648 26.408C57.968 26.376 58.272 26.328 58.56 26.264C58.752 26.232 59.088 26.168 59.568 26.072C59.824 26.008 60.32 25.96 61.056 25.928C61.632 25.96 62.192 25.976 62.736 25.976C63.6 26.04 64.192 25.976 64.512 25.784C64.608 25.72 64.672 25.608 64.704 25.448C64.896 25.096 64.928 24.52 64.8 23.72C64.704 23.176 64.72 22.632 64.848 22.088C64.944 21.8 64.976 21.448 64.944 21.032C64.944 20.488 64.96 20.104 64.992 19.88C65.024 19.56 65.024 19.368 64.992 19.304C64.896 19.176 64.816 19.096 64.752 19.064C64.688 19.032 64.448 19.048 64.032 19.112C63.552 19.144 62.72 19.144 61.536 19.112C60.128 19.08 59.04 19.064 58.272 19.064C57.824 19.096 57.488 19.064 57.264 18.968C57.136 18.936 56.992 18.904 56.832 18.872C56.672 18.808 56.512 18.744 56.352 18.68C56.096 18.552 55.936 18.424 55.872 18.296C55.808 18.232 55.776 18.12 55.776 17.96C55.776 17.704 55.952 17.496 56.304 17.336L56.592 17.192H57.84C58.512 17.192 59.184 17.176 59.856 17.144C60.432 17.08 61.056 17.048 61.728 17.048C63.328 16.984 64.288 16.92 64.608 16.856C64.896 16.824 65.056 16.76 65.088 16.664C65.12 16.536 65.152 16.072 65.184 15.272C65.184 14.248 65.168 13.512 65.136 13.064C65.072 12.296 65.04 11.624 65.04 11.048C65.072 10.408 65.072 10.008 65.04 9.848C65.008 9.72 64.928 9.608 64.8 9.512C64.544 9.288 64 9.272 63.168 9.464C62.816 9.528 61.76 9.56 60 9.56C57.632 9.56 56.208 9.48 55.728 9.32C55.12 9.096 54.896 8.808 55.056 8.456C55.152 8.232 55.472 8.056 56.016 7.928C56.624 7.768 57.216 7.688 57.792 7.688C58.496 7.688 59.424 7.624 60.576 7.496C61.056 7.464 61.424 7.48 61.68 7.544C61.904 7.576 62.432 7.592 63.264 7.592C63.712 7.56 64.16 7.544 64.608 7.544C64.864 7.608 65.056 7.576 65.184 7.448C65.216 7.448 65.264 7.32 65.328 7.064C65.456 6.68 65.632 6.488 65.856 6.488C66.016 6.488 66.128 6.52 66.192 6.584C66.448 6.872 66.592 7.08 66.624 7.208C66.688 7.464 66.784 8.248 66.912 9.56C67.104 11.48 67.264 12.504 67.392 12.632C67.392 12.696 67.456 12.728 67.584 12.728C67.68 12.728 67.888 12.76 68.208 12.824C68.464 12.888 68.704 12.952 68.928 13.016C69.12 13.016 69.472 13.112 69.984 13.304C70.336 13.4 70.688 13.496 71.04 13.592C71.264 13.592 71.536 13.656 71.856 13.784C72.432 14.008 72.768 14.04 72.864 13.88C72.896 13.848 72.896 13.624 72.864 13.208C72.736 12.216 72.736 11.368 72.864 10.664C72.896 10.216 72.912 9.768 72.912 9.32C72.912 8.68 72.944 8.232 73.008 7.976C73.04 7.752 73.04 7.432 73.008 7.016C73.008 6.632 72.976 6.312 72.912 6.056C72.816 5.544 72.848 5.208 73.008 5.048C73.2 4.824 73.472 4.648 73.824 4.52C73.984 4.488 74.496 4.472 75.36 4.472H76.608L77.376 4.28C78.016 4.152 78.384 4.088 78.48 4.088C78.8 4.088 79.088 4.04 79.344 3.944C79.76 3.816 80.224 3.752 80.736 3.752C81.056 3.752 81.376 3.752 81.696 3.752C82.016 3.976 82.224 4.184 82.32 4.376C82.256 4.664 82.096 4.92 81.84 5.144C81.712 5.272 81.456 5.432 81.072 5.624L80.448 5.96H79.92C79.504 5.96 79.008 6.04 78.432 6.2C77.984 6.328 77.712 6.392 77.616 6.392C77.392 6.456 77.152 6.52 76.896 6.584C76.768 6.616 76.464 6.664 75.984 6.728C75.312 6.824 74.928 6.952 74.832 7.112C74.704 7.432 74.64 7.976 74.64 8.744C74.608 11.816 74.608 13.448 74.64 13.64C74.8 14.12 75.152 14.392 75.696 14.456C76.048 14.456 76.304 14.472 76.464 14.504C76.656 14.536 77.04 14.552 77.616 14.552C78 14.552 78.288 14.6 78.48 14.696C79.088 14.92 79.68 15.08 80.256 15.176C80.64 15.176 81.568 15.272 83.04 15.464C83.2 15.464 83.472 15.512 83.856 15.608C84.176 15.704 84.736 15.768 85.536 15.8C86.08 15.832 86.48 15.864 86.736 15.896C86.896 15.928 87.008 15.992 87.072 16.088C87.2 16.28 87.168 16.488 86.976 16.712C86.784 16.936 86.544 17.048 86.256 17.048C86.224 17.048 86.016 17.112 85.632 17.24C85.28 17.368 84.912 17.432 84.528 17.432C84.176 17.496 83.808 17.544 83.424 17.576C83.136 17.576 82.8 17.608 82.416 17.672C82.16 17.704 81.888 17.72 81.6 17.72C81.408 17.784 81.184 17.816 80.928 17.816C80.608 17.912 80.368 17.992 80.208 18.056C78.928 18.568 77.84 18.888 76.944 19.016C76.304 19.112 75.888 19.336 75.696 19.688L75.552 19.976V21.704C75.552 23.208 75.536 24.2 75.504 24.68C75.472 25.256 75.488 25.976 75.552 26.84C75.648 27.864 75.648 28.744 75.552 29.48C75.424 30.792 75.376 31.928 75.408 32.888C75.504 32.984 75.552 33.992 75.552 35.912C75.52 36.296 75.536 36.712 75.6 37.16C75.664 37.576 75.68 38.024 75.648 38.504C75.648 39.112 75.616 39.48 75.552 39.608C75.456 40.216 75.44 40.696 75.504 41.048C75.664 41.688 75.952 42.104 76.368 42.296L76.608 42.44L77.616 42.392C79.248 42.328 80.336 42.376 80.88 42.536C81.232 42.632 81.408 42.808 81.408 43.064C81.408 43.288 81.248 43.592 80.928 43.976C80.768 44.168 80.544 44.296 80.256 44.36C79.84 44.488 79.424 44.552 79.008 44.552C78.432 44.552 78.096 44.568 78 44.6C77.328 44.792 76.784 44.888 76.368 44.888C76.048 44.888 75.792 44.92 75.6 44.984C75.216 45.048 74.624 45.048 73.824 44.984ZM67.824 19.976C67.92 19.944 68.08 19.928 68.304 19.928C68.432 19.928 68.592 19.88 68.784 19.784C69.008 19.72 69.28 19.656 69.6 19.592C69.664 19.592 69.92 19.512 70.368 19.352C70.624 19.224 70.912 19.128 71.232 19.064C71.712 19 72.128 18.856 72.48 18.632C72.608 18.536 72.736 18.456 72.864 18.392C73.184 18.296 73.296 17.944 73.2 17.336C73.168 16.728 73.04 16.344 72.816 16.184C72.72 16.088 72.56 16.04 72.336 16.04C72.08 16.008 71.824 15.96 71.568 15.896C71.376 15.832 71.072 15.752 70.656 15.656C70.24 15.56 70.016 15.496 69.984 15.464C69.792 15.432 69.584 15.384 69.36 15.32C69.136 15.256 68.912 15.192 68.688 15.128C68.208 14.904 67.824 14.888 67.536 15.08C67.408 15.176 67.328 15.304 67.296 15.464C67.264 15.624 67.264 16.104 67.296 16.904C67.296 18.024 67.28 18.712 67.248 18.968C67.216 19.512 67.264 19.848 67.392 19.976C67.456 20.04 67.6 20.04 67.824 19.976ZM75.648 17.48C75.936 17.384 76.192 17.336 76.416 17.336C77.12 17.24 77.696 17.144 78.144 17.048C78.912 16.888 79.296 16.776 79.296 16.712C79.296 16.648 79.264 16.616 79.2 16.616C78.976 16.616 78.768 16.6 78.576 16.568C77.552 16.472 76.656 16.408 75.888 16.376C75.504 16.312 75.28 16.312 75.216 16.376C75.024 16.504 74.992 16.744 75.12 17.096C75.184 17.352 75.232 17.496 75.264 17.528C75.296 17.56 75.424 17.544 75.648 17.48ZM123.936 42.536C124.096 42.472 124.096 42.328 123.936 42.104C123.872 41.752 123.792 41.4 123.696 41.048C123.696 41.016 123.648 40.856 123.552 40.568C123.424 40.376 123.328 39.992 123.264 39.416C123.264 39.384 123.264 39.336 123.264 39.272C123.264 39.24 123.248 39.224 123.216 39.224C122.992 38.68 122.768 38.136 122.544 37.592C122.48 37.176 122.4 36.76 122.304 36.344C122.24 35.832 122.176 35.448 122.112 35.192C121.984 34.744 121.856 34.296 121.728 33.848C121.728 33.528 121.664 33.24 121.536 32.984C121.472 32.824 121.392 32.648 121.296 32.456C121.232 32.296 121.168 32.12 121.104 31.928C121.104 31.832 121.088 31.72 121.056 31.592C121.024 31.56 121.008 31.528 121.008 31.496C120.848 31.112 120.688 30.728 120.528 30.344C120.432 29.96 120.336 29.576 120.24 29.192C120.24 29.128 120.224 29.08 120.192 29.048C120.096 28.792 120.032 28.632 120 28.568C120 28.504 119.968 28.376 119.904 28.184C119.904 28.12 119.872 28.056 119.808 27.992C119.776 27.832 119.728 27.656 119.664 27.464C119.632 27.336 119.584 27.192 119.52 27.032C119.488 26.904 119.44 26.744 119.376 26.552C119.248 26.424 119.152 26.376 119.088 26.408C119.088 26.44 119.072 26.456 119.04 26.456C118.944 26.616 118.896 26.76 118.896 26.888C118.832 27.144 118.784 27.32 118.752 27.416C118.72 27.512 118.688 27.608 118.656 27.704C118.656 27.832 118.64 27.96 118.608 28.088C118.576 28.152 118.56 28.28 118.56 28.472C118.56 28.504 118.512 28.776 118.416 29.288C118.416 29.352 118.368 29.624 118.272 30.104C118.208 30.488 118.176 30.776 118.176 30.968C118.176 31.064 118.176 31.16 118.176 31.256C118.144 31.384 118.112 31.512 118.08 31.64C117.984 31.992 117.888 32.344 117.792 32.696C117.792 32.824 117.776 32.92 117.744 32.984C117.648 33.624 117.584 33.992 117.552 34.088C117.456 34.376 117.36 34.648 117.264 34.904C117.168 35.16 117.088 35.576 117.024 36.152C117.024 36.184 117.024 36.216 117.024 36.248C116.96 36.632 116.896 36.952 116.832 37.208C116.768 37.4 116.688 37.592 116.592 37.784C116.528 38.232 116.448 38.664 116.352 39.08C116.352 39.112 116.352 39.144 116.352 39.176C116.32 39.496 116.24 39.896 116.112 40.376C116.08 40.536 116.032 40.68 115.968 40.808C115.904 41.192 115.856 41.464 115.824 41.624C115.824 41.944 115.92 42.152 116.112 42.248C116.144 42.248 116.176 42.248 116.208 42.248C116.24 42.28 116.32 42.296 116.448 42.296C116.736 42.328 117.024 42.344 117.312 42.344C117.536 42.344 117.84 42.376 118.224 42.44C118.896 42.44 119.568 42.44 120.24 42.44C120.56 42.472 120.864 42.504 121.152 42.536C121.312 42.536 121.472 42.52 121.632 42.488C121.824 42.488 122 42.488 122.16 42.488C122.192 42.488 122.272 42.488 122.4 42.488C122.528 42.52 122.848 42.536 123.36 42.536C123.552 42.536 123.744 42.536 123.936 42.536ZM117.216 16.664C117.28 16.888 117.328 17.112 117.36 17.336C117.424 17.592 117.456 17.784 117.456 17.912C117.52 18.232 117.584 18.472 117.648 18.632C117.744 18.984 117.824 19.336 117.888 19.688C117.984 19.88 118.08 20.072 118.176 20.264C118.24 20.392 118.304 20.52 118.368 20.648C118.368 20.68 118.368 20.712 118.368 20.744C118.4 20.744 118.416 20.76 118.416 20.792C118.416 20.856 118.432 20.92 118.464 20.984C118.464 21.08 118.496 21.16 118.56 21.224C118.624 21.288 118.704 21.272 118.8 21.176C118.832 21.08 118.864 20.984 118.896 20.888C118.96 20.728 119.008 20.552 119.04 20.36C119.072 20.264 119.088 20.088 119.088 19.832C119.088 19.768 119.088 19.704 119.088 19.64C119.088 19.608 119.088 19.576 119.088 19.544C119.088 19.352 119.12 19.096 119.184 18.776C119.216 18.648 119.296 18.456 119.424 18.2C119.456 18.136 119.472 18.072 119.472 18.008C119.536 17.88 119.6 17.624 119.664 17.24C119.728 17.144 119.792 17 119.856 16.808C119.888 16.648 119.968 16.408 120.096 16.088C120.224 15.768 120.32 15.512 120.384 15.32C120.576 14.84 120.64 14.312 120.576 13.736C120.576 13.64 120.56 13.576 120.528 13.544C120.4 13.384 120.272 13.368 120.144 13.496C120.016 13.656 119.824 13.832 119.568 14.024C119.536 14.088 119.488 14.136 119.424 14.168C119.392 14.2 119.344 14.216 119.28 14.216C119.248 14.248 119.216 14.28 119.184 14.312C119.12 14.344 119.04 14.408 118.944 14.504C118.912 14.536 118.88 14.552 118.848 14.552C118.784 14.616 118.72 14.664 118.656 14.696C118.592 14.76 118.528 14.808 118.464 14.84C118.4 14.904 118.32 14.952 118.224 14.984C118.16 15.048 118.128 15.096 118.128 15.128C118.096 15.192 118.048 15.24 117.984 15.272C117.92 15.336 117.84 15.4 117.744 15.464C117.712 15.496 117.68 15.528 117.648 15.56C117.616 15.56 117.568 15.592 117.504 15.656C117.472 15.688 117.44 15.704 117.408 15.704C117.376 15.736 117.344 15.752 117.312 15.752C117.28 15.784 117.248 15.816 117.216 15.848C117.088 15.976 117.056 16.12 117.12 16.28C117.12 16.344 117.12 16.408 117.12 16.472C117.12 16.504 117.12 16.52 117.12 16.52C117.152 16.52 117.168 16.536 117.168 16.568C117.168 16.6 117.184 16.616 117.216 16.616C117.216 16.648 117.216 16.664 117.216 16.664ZM131.856 43.592C132.144 43.848 132.16 44.072 131.904 44.264C131.84 44.296 131.6 44.36 131.184 44.456C131.12 44.488 131.056 44.504 130.992 44.504C130.736 44.568 130.56 44.6 130.464 44.6C130.4 44.632 130.32 44.648 130.224 44.648C129.744 44.712 129.248 44.76 128.736 44.792C128.192 44.792 127.632 44.776 127.056 44.744C127.024 44.744 126.976 44.744 126.912 44.744C126.816 44.808 126.768 44.888 126.768 44.984C126.768 45.4 126.768 45.8 126.768 46.184C126.768 46.248 126.752 46.312 126.72 46.376C126.656 46.568 126.608 46.664 126.576 46.664C126.384 46.728 126.256 46.728 126.192 46.664C125.968 46.344 125.84 46.152 125.808 46.088C125.712 45.832 125.6 45.64 125.472 45.512C125.28 45.032 125.056 44.728 124.8 44.6C124.672 44.536 124.464 44.504 124.176 44.504C123.984 44.472 123.792 44.424 123.6 44.36C123.472 44.328 123.312 44.312 123.12 44.312C123.056 44.312 122.976 44.312 122.88 44.312C122.496 44.248 122.192 44.216 121.968 44.216C121.584 44.248 121.2 44.264 120.816 44.264C120.624 44.264 120.464 44.248 120.336 44.216C120.016 44.216 119.696 44.2 119.376 44.168C119.312 44.168 119.232 44.168 119.136 44.168C118.72 44.232 118.416 44.232 118.224 44.168C118.192 44.168 118.16 44.168 118.128 44.168C117.936 44.168 117.744 44.168 117.552 44.168C117.456 44.168 117.344 44.168 117.216 44.168C117.152 44.168 117.072 44.168 116.976 44.168C116.752 44.2 116.416 44.184 115.968 44.12C115.936 44.12 115.92 44.104 115.92 44.072C115.664 44.072 115.408 44.056 115.152 44.024C114.768 44.024 114.368 44.024 113.952 44.024C113.536 44.024 113.12 44.024 112.704 44.024C112.672 44.024 112.64 44.024 112.608 44.024C112.32 44.056 112.016 44.088 111.696 44.12C111.344 44.12 111.024 44.168 110.736 44.264C110.576 44.296 110.352 44.312 110.064 44.312C109.968 44.312 109.856 44.312 109.728 44.312C109.696 44.28 109.664 44.264 109.632 44.264C109.344 44.264 109.04 44.264 108.72 44.264H108.672C108.64 44.264 108.592 44.264 108.528 44.264C108.336 44.232 108.192 44.136 108.096 43.976C108.064 43.976 108.016 43.944 107.952 43.88C107.792 43.784 107.712 43.656 107.712 43.496C107.712 43.4 107.744 43.32 107.808 43.256C107.872 43.128 108.048 43 108.336 42.872C108.464 42.808 108.688 42.744 109.008 42.68C109.712 42.616 110.224 42.552 110.544 42.488C110.672 42.488 110.8 42.488 110.928 42.488C111.056 42.488 111.168 42.488 111.264 42.488C111.552 42.488 111.776 42.456 111.936 42.392C112.064 42.392 112.192 42.376 112.32 42.344C112.352 42.344 112.464 42.328 112.656 42.296C112.848 42.264 113.024 42.248 113.184 42.248C113.28 42.216 113.44 42.2 113.664 42.2C113.792 42.168 113.904 42.136 114 42.104C114.032 42.104 114.08 42.088 114.144 42.056C114.208 42.056 114.288 41.976 114.384 41.816C114.416 41.72 114.448 41.624 114.48 41.528C114.544 41.208 114.592 40.984 114.624 40.856C114.656 40.6 114.672 40.232 114.672 39.752C114.672 39.592 114.672 39.416 114.672 39.224C114.672 39.16 114.672 39.096 114.672 39.032C114.672 38.616 114.688 38.296 114.72 38.072C114.784 37.656 114.832 37.24 114.864 36.824C114.864 36.408 114.928 36.008 115.056 35.624C115.184 35.304 115.264 35.064 115.296 34.904C115.424 34.68 115.504 34.472 115.536 34.28C115.6 33.832 115.664 33.384 115.728 32.936C115.792 32.712 115.888 32.472 116.016 32.216V32.168C116.08 32.008 116.144 31.704 116.208 31.256C116.272 30.776 116.32 30.296 116.352 29.816C116.384 29.656 116.464 29.416 116.592 29.096C116.688 28.872 116.768 28.472 116.832 27.896C116.864 27.896 116.88 27.88 116.88 27.848C117.008 27.432 117.088 27.16 117.12 27.032C117.152 26.872 117.168 26.712 117.168 26.552C117.2 26.456 117.216 26.36 117.216 26.264C117.248 26.168 117.264 26.024 117.264 25.832C117.264 25.768 117.232 25.672 117.168 25.544C117.04 25.48 116.928 25.448 116.832 25.448C116.544 25.448 116.32 25.432 116.16 25.4C116.064 25.368 115.936 25.352 115.776 25.352H115.728H115.68C115.616 25.352 115.552 25.352 115.488 25.352C115.168 25.352 114.848 25.352 114.528 25.352C114.208 25.384 113.888 25.4 113.568 25.4C113.056 25.432 112.544 25.464 112.032 25.496C111.84 25.496 111.648 25.48 111.456 25.448C111.424 25.448 111.376 25.448 111.312 25.448C111.184 25.448 111.024 25.416 110.832 25.352H110.784C110.592 25.224 110.448 25.144 110.352 25.112C110.288 25.048 110.208 24.968 110.112 24.872C110.048 24.808 109.984 24.744 109.92 24.68C109.888 24.648 109.872 24.6 109.872 24.536C109.84 24.504 109.824 24.456 109.824 24.392C109.856 24.232 110.08 24.056 110.496 23.864C110.624 23.8 110.832 23.768 111.12 23.768C111.408 23.736 111.68 23.688 111.936 23.624C112.064 23.624 112.176 23.608 112.272 23.576C112.432 23.544 112.832 23.576 113.472 23.672C113.6 23.672 113.728 23.672 113.856 23.672C114.208 23.672 114.544 23.672 114.864 23.672C115.088 23.672 115.392 23.64 115.776 23.576C115.936 23.576 116.048 23.56 116.112 23.528C116.24 23.528 116.352 23.528 116.448 23.528C116.768 23.624 116.992 23.64 117.12 23.576C117.216 23.544 117.264 23.464 117.264 23.336C117.296 23.208 117.232 23 117.072 22.712C117.008 22.584 116.944 22.328 116.88 21.944C116.88 21.784 116.848 21.576 116.784 21.32C116.656 20.872 116.528 20.424 116.4 19.976C116.272 19.528 116.144 19.192 116.016 18.968C115.952 18.84 115.92 18.744 115.92 18.68C115.888 18.68 115.872 18.664 115.872 18.632C115.872 18.6 115.856 18.568 115.824 18.536C115.76 18.312 115.696 18.072 115.632 17.816C115.504 17.368 115.392 17.048 115.296 16.856C115.296 16.792 115.264 16.696 115.2 16.568C115.168 16.472 115.12 16.36 115.056 16.232C115.024 16.168 115.008 16.104 115.008 16.04C114.976 15.656 114.944 15.272 114.912 14.888C114.88 14.536 114.848 14.168 114.816 13.784C114.816 13.4 114.8 13 114.768 12.584C114.768 12.392 114.736 12.072 114.672 11.624C114.672 11.528 114.672 11.416 114.672 11.288C114.672 11.128 114.672 10.968 114.672 10.808C114.736 10.488 114.784 10.152 114.816 9.8C114.816 9.448 114.8 9.08 114.768 8.696C114.8 8.536 114.848 8.264 114.912 7.88C114.976 7.496 115.024 7.192 115.056 6.968C115.088 6.936 115.104 6.888 115.104 6.824V6.776C115.104 6.744 115.104 6.712 115.104 6.68C115.104 6.616 115.12 6.584 115.152 6.584C115.152 6.552 115.152 6.52 115.152 6.488V6.44C115.216 6.248 115.28 6.12 115.344 6.056C115.504 5.832 115.648 5.672 115.776 5.576C116.096 5.48 116.32 5.72 116.448 6.296C116.512 6.52 116.544 7.048 116.544 7.88C116.544 8.04 116.544 8.2 116.544 8.36C116.576 8.392 116.592 8.44 116.592 8.504C116.624 8.76 116.64 9.144 116.64 9.656C116.64 10.04 116.656 10.328 116.688 10.52C116.688 10.552 116.688 10.584 116.688 10.616C116.72 10.712 116.736 10.856 116.736 11.048C116.736 11.176 116.736 11.288 116.736 11.384C116.736 11.512 116.736 11.624 116.736 11.72C116.704 11.752 116.688 11.816 116.688 11.912C116.72 12.008 116.736 12.088 116.736 12.152C116.736 12.728 116.72 13.08 116.688 13.208C116.624 13.496 116.608 13.72 116.64 13.88C116.672 14.072 116.768 14.168 116.928 14.168C117.024 14.168 117.168 14.088 117.36 13.928C117.584 13.768 117.792 13.592 117.984 13.4C118.208 13.176 118.384 13.016 118.512 12.92C118.576 12.888 118.624 12.84 118.656 12.776C118.752 12.68 118.848 12.584 118.944 12.488C118.976 12.488 118.992 12.488 118.992 12.488C118.992 12.456 119.024 12.408 119.088 12.344C119.12 12.344 119.136 12.328 119.136 12.296V12.248C119.168 12.248 119.216 12.232 119.28 12.2C119.344 12.136 119.424 12.04 119.52 11.912C119.712 11.656 119.904 11.384 120.096 11.096C120.128 11.032 120.16 10.968 120.192 10.904C120.256 10.712 120.304 10.504 120.336 10.28C120.336 9.96 120.32 9.624 120.288 9.272C120.288 8.888 120.256 8.344 120.192 7.64C120.192 7.608 120.176 7.56 120.144 7.496C120.048 7.24 120.032 6.952 120.096 6.632C120.096 6.408 120.08 6.248 120.048 6.152C120.048 5.928 120.048 5.704 120.048 5.48C120.048 5.352 120.048 5.224 120.048 5.096C120.048 4.936 120.08 4.728 120.144 4.472C120.144 4.44 120.144 4.408 120.144 4.376V4.328C120.176 4.328 120.192 4.296 120.192 4.232C120.224 4.136 120.24 4.04 120.24 3.944C120.272 3.88 120.304 3.8 120.336 3.704C120.4 3.32 120.528 3.064 120.72 2.936C120.944 2.712 121.152 2.76 121.344 3.08C121.408 3.208 121.488 3.64 121.584 4.376C121.616 4.472 121.632 4.616 121.632 4.808C121.632 4.84 121.632 4.872 121.632 4.904C121.696 5.16 121.744 5.4 121.776 5.624C121.776 5.816 121.808 6.104 121.872 6.488C121.872 6.712 121.888 6.872 121.92 6.968C121.92 7.064 121.92 7.144 121.92 7.208C121.92 7.752 121.952 8.152 122.016 8.408C122.112 8.568 122.24 8.6 122.4 8.504C122.432 8.504 122.448 8.488 122.448 8.456C122.512 8.456 122.576 8.424 122.64 8.36C122.736 8.264 122.816 8.168 122.88 8.072C122.976 7.976 123.12 7.864 123.312 7.736C123.408 7.64 123.504 7.544 123.6 7.448V7.4C123.664 7.368 123.712 7.32 123.744 7.256C123.808 7.224 123.856 7.176 123.888 7.112V7.064C123.92 7.032 123.952 6.984 123.984 6.92V6.872C124.016 6.84 124.048 6.808 124.08 6.776V6.728C124.144 6.664 124.176 6.6 124.176 6.536C124.208 6.504 124.32 6.232 124.512 5.72C124.832 5.176 125.008 4.856 125.04 4.76C125.136 4.472 125.232 4.184 125.328 3.896C125.456 3.672 125.568 3.432 125.664 3.176C125.728 3.112 125.76 3.064 125.76 3.032C125.856 2.808 126.032 2.696 126.288 2.696C126.576 2.76 126.72 2.904 126.72 3.128C126.784 3.384 126.816 3.592 126.816 3.752C126.816 4.008 126.8 4.264 126.768 4.52C126.736 4.744 126.704 4.968 126.672 5.192C126.64 5.544 126.592 5.88 126.528 6.2C126.432 6.456 126.336 6.696 126.24 6.92C126.144 7.208 126.032 7.496 125.904 7.784C125.808 7.912 125.696 8.04 125.568 8.168C125.44 8.264 125.296 8.36 125.136 8.456C124.848 8.616 124.64 8.792 124.512 8.984C124.448 9.08 124.336 9.208 124.176 9.368C123.984 9.528 123.792 9.688 123.6 9.848C123.6 9.88 123.552 9.944 123.456 10.04C123.36 10.136 123.28 10.248 123.216 10.376C122.768 11.016 122.528 11.368 122.496 11.432C122.464 11.464 122.448 11.528 122.448 11.624C122.448 11.656 122.4 11.88 122.304 12.296C122.304 12.52 122.304 12.728 122.304 12.92C122.304 13.336 122.32 13.64 122.352 13.832C122.352 14.216 122.352 14.584 122.352 14.936C122.352 15.192 122.288 15.544 122.16 15.992C122.128 16.12 122.08 16.248 122.016 16.376C121.952 16.472 121.888 16.584 121.824 16.712C121.696 17.032 121.552 17.336 121.392 17.624C121.328 17.88 121.248 18.136 121.152 18.392C121.088 18.584 121.024 18.776 120.96 18.968C120.96 19.096 120.944 19.224 120.912 19.352C120.88 19.608 120.832 19.848 120.768 20.072C120.704 20.232 120.672 20.44 120.672 20.696C120.672 20.792 120.672 20.888 120.672 20.984C120.672 21.208 120.704 21.576 120.768 22.088C120.8 22.216 120.816 22.344 120.816 22.472C120.816 22.504 120.816 22.568 120.816 22.664C120.816 22.76 120.816 22.888 120.816 23.048C120.816 23.144 120.816 23.224 120.816 23.288C120.752 23.608 120.928 23.816 121.344 23.912C121.472 23.944 121.696 23.992 122.016 24.056C122.048 24.056 122.112 24.072 122.208 24.104C122.336 24.136 122.512 24.184 122.736 24.248C122.864 24.28 123.184 24.296 123.696 24.296C123.888 24.296 124.08 24.296 124.272 24.296C124.496 24.296 124.704 24.296 124.896 24.296C125.184 24.296 125.408 24.312 125.568 24.344C125.696 24.344 125.792 24.36 125.856 24.392C126.016 24.392 126.288 24.36 126.672 24.296C127.12 24.296 127.392 24.312 127.488 24.344C127.552 24.344 127.616 24.376 127.68 24.44C127.936 24.632 127.888 24.904 127.536 25.256C127.472 25.32 127.408 25.384 127.344 25.448H127.296C127.04 25.64 126.832 25.768 126.672 25.832H126.624C126.624 25.864 126.608 25.88 126.576 25.88C126.512 25.88 126.464 25.896 126.432 25.928C126.368 25.928 126.32 25.944 126.288 25.976H126.24C126.208 25.976 126.16 25.976 126.096 25.976C126.064 26.008 126.016 26.024 125.952 26.024C125.632 26.024 125.312 26.024 124.992 26.024C124.832 25.992 124.576 25.976 124.224 25.976C123.872 25.976 123.52 25.976 123.168 25.976C122.848 25.976 122.624 25.96 122.496 25.928C122.24 25.864 122.064 25.832 121.968 25.832C121.872 25.832 121.824 25.848 121.824 25.88C121.76 25.88 121.728 25.928 121.728 26.024C121.696 26.152 121.712 26.344 121.776 26.6C121.84 26.76 121.888 26.904 121.92 27.032C121.984 27.224 122.096 27.624 122.256 28.232C122.32 28.52 122.416 28.808 122.544 29.096C122.576 29.128 122.608 29.16 122.64 29.192C122.704 29.32 122.768 29.448 122.832 29.576C122.832 29.608 122.848 29.688 122.88 29.816C122.944 29.944 123.008 30.264 123.072 30.776C123.168 31.096 123.264 31.4 123.36 31.688C123.456 31.944 123.52 32.104 123.552 32.168C123.616 32.36 123.68 32.552 123.744 32.744C123.744 32.776 123.792 33.144 123.888 33.848C123.92 33.88 123.936 33.944 123.936 34.04C124 34.168 124.064 34.36 124.128 34.616C124.128 34.68 124.128 34.744 124.128 34.808C124.16 35.096 124.176 35.384 124.176 35.672C124.24 36.024 124.336 36.344 124.464 36.632C124.528 36.856 124.592 37.08 124.656 37.304C124.72 37.624 124.768 37.928 124.8 38.216C124.832 38.248 124.848 38.296 124.848 38.36C125.04 38.936 125.12 39.48 125.088 39.992C125.088 40.632 125.216 41.096 125.472 41.384C125.504 41.416 125.568 41.528 125.664 41.72C125.792 41.848 125.872 41.976 125.904 42.104C125.968 42.232 126.032 42.36 126.096 42.488C126.256 42.712 126.528 42.824 126.912 42.824C127.264 42.888 127.616 42.952 127.968 43.016C128.416 43.048 128.864 43.064 129.312 43.064C129.568 43.096 129.808 43.112 130.032 43.112C130.064 43.112 130.144 43.112 130.272 43.112C130.4 43.112 130.576 43.112 130.8 43.112C131.248 43.176 131.6 43.336 131.856 43.592ZM175.488 9.32C175.552 9.768 175.6 10.2 175.632 10.616C175.632 10.968 175.632 11.304 175.632 11.624C175.6 11.848 175.568 12.072 175.536 12.296C175.536 12.456 175.552 12.568 175.584 12.632C175.68 13.208 175.68 13.784 175.584 14.36C175.552 14.552 175.536 15.176 175.536 16.232C175.536 16.392 175.504 16.568 175.44 16.76C175.376 17.048 175.264 17.24 175.104 17.336C174.976 17.432 174.752 17.48 174.432 17.48C173.824 17.48 173.216 17.48 172.608 17.48C172.096 17.544 171.584 17.608 171.072 17.672C170.816 17.736 170.528 17.784 170.208 17.816C169.888 17.848 169.632 17.944 169.44 18.104C169.28 18.328 169.2 18.616 169.2 18.968C169.168 19.48 169.12 19.976 169.056 20.456C169.056 20.648 168.976 21.096 168.816 21.8C168.784 22.28 168.736 22.744 168.672 23.192C168.672 23.256 168.688 23.304 168.72 23.336C168.784 23.976 168.784 24.6 168.72 25.208C168.72 25.336 168.72 25.464 168.72 25.592C168.72 25.912 168.752 26.392 168.816 27.032C168.816 27.224 168.944 27.48 169.2 27.8C169.264 27.896 169.312 27.976 169.344 28.04C169.44 28.232 169.616 28.52 169.872 28.904C169.968 29.032 170.048 29.16 170.112 29.288C170.112 29.352 170.128 29.4 170.16 29.432C170.192 29.464 170.208 29.496 170.208 29.528C170.368 29.816 170.512 30.104 170.64 30.392C170.704 30.488 170.752 30.584 170.784 30.68C170.88 30.84 171.024 31 171.216 31.16C171.568 31.608 171.872 32.056 172.128 32.504C172.288 32.76 172.448 33.016 172.608 33.272C172.992 34.168 173.376 35.048 173.76 35.912C173.984 36.36 174.08 36.744 174.048 37.064C174.048 37.704 173.872 38.328 173.52 38.936C173.456 39.032 173.296 39.416 173.04 40.088C172.816 40.568 172.544 40.952 172.224 41.24C171.808 41.56 171.248 42.104 170.544 42.872C170.448 42.968 170.384 43.016 170.352 43.016C169.904 43.304 169.456 43.576 169.008 43.832C168.56 44.056 168.096 44.264 167.616 44.456C167.296 44.68 166.976 44.904 166.656 45.128C166.528 45.192 166.448 45.24 166.416 45.272C166.288 45.336 166.144 45.4 165.984 45.464C165.728 45.624 165.456 45.704 165.168 45.704C164.72 45.704 164.448 45.672 164.352 45.608C164.288 45.544 164.208 45.48 164.112 45.416C163.984 45.352 163.904 45.288 163.872 45.224C163.84 45.128 163.808 45.032 163.776 44.936V44.888V44.84C163.648 44.392 163.584 44.072 163.584 43.88C163.552 43.752 163.52 43.608 163.488 43.448C163.488 43.16 163.44 42.872 163.344 42.584C163.344 42.52 163.312 42.424 163.248 42.296C163.248 42.232 163.12 41.752 162.864 40.856C162.832 40.76 162.784 40.584 162.72 40.328C162.688 40.136 162.64 39.944 162.576 39.752C162.512 39.464 162.432 39.176 162.336 38.888C162.336 38.536 162.32 38.168 162.288 37.784C162.288 37.528 162.256 37.24 162.192 36.92C162.192 36.728 162.224 36.44 162.288 36.056C162.288 35.768 162.272 35.464 162.24 35.144C162.272 35.048 162.288 34.952 162.288 34.856C162.384 34.6 162.592 34.248 162.912 33.8C163.072 33.448 163.312 33.256 163.632 33.224C163.792 33.288 163.904 33.416 163.968 33.608C164.064 33.8 164.128 33.96 164.16 34.088C164.192 34.184 164.208 34.264 164.208 34.328C164.24 34.488 164.256 34.712 164.256 35C164.256 35.128 164.272 35.208 164.304 35.24C164.432 35.944 164.544 36.632 164.64 37.304C164.672 37.56 164.688 37.928 164.688 38.408C164.688 38.504 164.704 38.568 164.736 38.6C164.768 38.888 164.848 39.176 164.976 39.464C165.136 40.168 165.296 40.872 165.456 41.576C165.584 41.928 165.696 42.264 165.792 42.584C165.856 42.776 165.936 42.888 166.032 42.92C166.288 42.952 166.56 42.824 166.848 42.536C166.88 42.536 166.928 42.504 166.992 42.44C167.152 42.344 167.312 42.248 167.472 42.152C167.664 41.992 168.016 41.784 168.528 41.528C168.848 41.304 169.152 41.064 169.44 40.808C169.504 40.744 169.632 40.648 169.824 40.52C169.888 40.488 169.936 40.44 169.968 40.376C170.096 40.184 170.208 40.056 170.304 39.992C170.56 39.736 170.8 39.48 171.024 39.224C171.216 38.936 171.408 38.648 171.6 38.36C172.016 37.656 172.048 36.968 171.696 36.296C171.472 35.848 171.248 35.4 171.024 34.952C170.928 34.664 170.816 34.376 170.688 34.088V34.04C170.624 33.848 170.56 33.704 170.496 33.608C170.208 33.224 169.92 32.824 169.632 32.408C169.472 32.152 169.312 31.88 169.152 31.592C168.992 31.432 168.864 31.256 168.768 31.064V31.016C168.736 30.952 168.704 30.888 168.672 30.824C168.64 30.76 168.608 30.68 168.576 30.584C168.448 30.2 168.32 29.944 168.192 29.816C167.968 29.592 167.824 29.4 167.76 29.24C167.408 28.664 167.232 28.36 167.232 28.328C167.168 28.2 167.088 28.056 166.992 27.896C166.832 27.672 166.736 27.464 166.704 27.272C166.704 27.144 166.688 27.016 166.656 26.888C166.592 26.632 166.56 26.424 166.56 26.264C166.56 25.976 166.56 25.672 166.56 25.352C166.528 25 166.48 24.648 166.416 24.296C166.448 24.008 166.48 23.704 166.512 23.384C166.448 22.808 166.448 22.184 166.512 21.512C166.576 21.32 166.624 21.16 166.656 21.032V20.984C166.688 20.952 166.704 20.904 166.704 20.84C166.704 20.808 166.704 20.776 166.704 20.744C166.736 20.712 166.752 20.664 166.752 20.6C166.752 20.504 166.752 20.392 166.752 20.264C166.784 19.944 166.816 19.624 166.848 19.304C166.912 18.792 166.816 18.472 166.56 18.344C166.528 18.312 166.448 18.264 166.32 18.2C166.256 18.2 166.128 18.168 165.936 18.104C165.744 18.072 165.536 18.024 165.312 17.96C165.184 17.928 165.04 17.88 164.88 17.816C164.752 17.816 164.688 17.784 164.688 17.72C164.656 17.72 164.624 17.72 164.592 17.72H164.544C164.544 17.688 164.528 17.672 164.496 17.672H164.448C164.416 17.64 164.384 17.624 164.352 17.624H164.304C164.304 17.592 164.272 17.576 164.208 17.576C164.176 17.544 164.144 17.528 164.112 17.528L164.064 17.48C164.032 17.448 164 17.432 163.968 17.432C163.936 17.432 163.904 17.416 163.872 17.384C163.808 17.32 163.712 17.256 163.584 17.192C163.232 17 163.024 16.904 162.96 16.904C162.736 16.84 162.368 16.744 161.856 16.616C161.28 16.488 160.912 16.376 160.752 16.28C160.528 16.152 160.272 16.056 159.984 15.992C159.696 15.928 159.456 15.8 159.264 15.608C158.944 15.384 158.72 15.096 158.592 14.744C158.592 14.104 158.576 13.448 158.544 12.776C158.576 12.68 158.592 12.568 158.592 12.44C158.592 12.408 158.592 12.36 158.592 12.296C158.624 12.232 158.64 12.168 158.64 12.104C158.64 12.072 158.64 12.04 158.64 12.008C158.64 11.944 158.64 11.88 158.64 11.816C158.64 11.72 158.64 11.624 158.64 11.528C158.64 11.336 158.64 11.128 158.64 10.904C158.64 10.616 158.688 10.296 158.784 9.944C158.848 9.752 158.88 9.176 158.88 8.216C158.912 8.152 158.928 8.088 158.928 8.024V7.976C158.928 7.784 158.944 7.656 158.976 7.592C159.008 7.368 159.024 7.128 159.024 6.872C159.056 6.552 159.136 6.184 159.264 5.768V5.72C159.328 5.464 159.408 5.24 159.504 5.048C159.632 4.824 159.808 4.712 160.032 4.712C160.448 4.712 160.848 4.696 161.232 4.664C161.424 4.632 161.696 4.648 162.048 4.712C162.432 4.68 162.816 4.68 163.2 4.712C163.424 4.712 163.632 4.712 163.824 4.712C164.048 4.712 164.256 4.696 164.448 4.664C164.544 4.664 164.816 4.632 165.264 4.568C165.584 4.632 165.904 4.68 166.224 4.712C166.768 4.744 167.296 4.776 167.808 4.808C167.968 4.872 168.176 4.936 168.432 5C168.88 5.192 169.408 5.32 170.016 5.384C170.816 5.512 171.472 5.624 171.984 5.72C172.176 5.752 172.368 5.768 172.56 5.768C172.752 5.768 173.008 5.8 173.328 5.864C173.584 5.864 173.84 5.848 174.096 5.816C174.32 5.816 174.48 5.896 174.576 6.056C174.672 6.216 174.768 6.392 174.864 6.584C174.96 6.712 175.072 7.016 175.2 7.496C175.36 8.072 175.44 8.392 175.44 8.456C175.472 8.744 175.488 9.032 175.488 9.32ZM173.136 9.224C173.136 9 173.12 8.84 173.088 8.744C172.992 8.456 172.928 8.296 172.896 8.264C172.832 8.104 172.656 8.024 172.368 8.024C172.208 7.992 172.032 7.944 171.84 7.88H171.792C171.504 7.848 171.2 7.8 170.88 7.736C170.624 7.608 170.416 7.528 170.256 7.496C170.128 7.432 169.904 7.4 169.584 7.4C169.232 7.336 168.88 7.272 168.528 7.208C168.176 7.176 167.824 7.144 167.472 7.112C167.408 7.112 167.328 7.112 167.232 7.112C167.2 7.112 167.168 7.096 167.136 7.064C166.752 7.064 166.368 7.016 165.984 6.92C165.472 6.824 164.96 6.776 164.448 6.776C164.256 6.744 163.936 6.728 163.488 6.728C163.008 6.664 162.544 6.68 162.096 6.776C161.968 6.84 161.824 7.096 161.664 7.544C161.504 7.8 161.408 7.976 161.376 8.072C161.376 8.104 161.328 8.216 161.232 8.408C161.168 8.6 161.152 8.824 161.184 9.08C161.28 9.752 161.248 10.424 161.088 11.096C160.992 11.544 160.976 12.008 161.04 12.488C161.072 12.648 161.088 12.888 161.088 13.208C161.152 13.528 161.328 13.736 161.616 13.832C161.744 13.896 161.968 13.992 162.288 14.12C162.32 14.12 162.592 14.168 163.104 14.264C163.232 14.264 163.456 14.328 163.776 14.456C164.576 14.904 165.456 15.192 166.416 15.32C166.512 15.32 166.624 15.352 166.752 15.416C166.912 15.48 167.056 15.528 167.184 15.56C167.216 15.592 167.296 15.608 167.424 15.608C167.648 15.608 167.856 15.608 168.048 15.608C168.528 15.704 168.816 15.736 168.912 15.704C168.976 15.704 169.04 15.704 169.104 15.704C169.232 15.704 169.312 15.688 169.344 15.656C169.408 15.656 169.568 15.624 169.824 15.56C170.272 15.496 170.624 15.448 170.88 15.416C170.976 15.416 171.056 15.416 171.12 15.416C171.504 15.288 171.888 15.144 172.272 14.984C172.56 14.92 172.752 14.824 172.848 14.696C172.976 14.44 173.024 14.168 172.992 13.88C172.992 13.688 173.008 13.544 173.04 13.448C173.104 12.84 173.12 12.36 173.088 12.008C173.088 11.976 173.072 11.928 173.04 11.864C173.008 11.48 173.024 10.936 173.088 10.232C173.152 9.848 173.168 9.512 173.136 9.224Z" fill="white"/>
</svg>
