<svg width="172" height="46" viewBox="0 0 172 46" fill="none" xmlns="http://www.w3.org/2000/svg">
<path d="M21.616 22.864C21.712 23.152 21.696 23.36 21.568 23.488C21.568 23.552 21.536 23.584 21.472 23.584C21.344 23.68 21.216 23.76 21.088 23.824C21.024 23.888 20.976 23.92 20.944 23.92C20.816 24.016 20.672 24.096 20.512 24.16C20.096 24.288 19.824 24.368 19.696 24.4C19.152 24.88 18.592 25.136 18.016 25.168C17.76 25.2 17.488 25.216 17.2 25.216C17.104 25.248 16.88 25.264 16.528 25.264C16.464 25.232 16.368 25.216 16.24 25.216C16.08 25.184 15.856 25.168 15.568 25.168C15.472 25.168 15.36 25.168 15.232 25.168C15.104 25.168 14.976 25.152 14.848 25.12C14.656 25.12 14.448 25.12 14.224 25.12C14.128 25.12 14.064 25.104 14.032 25.072C13.84 25.072 13.632 25.056 13.408 25.024C13.344 25.024 13.28 25.008 13.216 24.976C13.056 24.976 12.88 24.96 12.688 24.928C12.656 24.928 12.624 24.928 12.592 24.928H12.544H12.496C12.496 24.96 12.48 24.976 12.448 24.976C12.384 24.976 12.336 24.992 12.304 25.024C12.272 25.024 12.224 25.024 12.16 25.024C12.064 25.056 11.968 25.088 11.872 25.12C11.296 25.12 10.864 25.136 10.576 25.168C10.416 25.168 10.24 25.168 10.048 25.168C9.824 25.168 9.648 25.088 9.52 24.928C9.232 24.704 9.184 24.464 9.376 24.208C9.536 23.6 9.696 23.216 9.856 23.056C10.112 22.832 10.368 22.608 10.624 22.384C11.04 22.16 11.44 22.048 11.824 22.048C12.08 22.048 12.336 22.048 12.592 22.048C12.656 22.048 12.704 22.048 12.736 22.048C13.088 22.048 13.424 22.048 13.744 22.048C14.032 22.048 14.304 22.048 14.56 22.048C14.72 22.048 14.864 22.048 14.992 22.048C15.408 22.048 15.712 22.064 15.904 22.096C16.224 22.096 16.464 22.08 16.624 22.048C16.752 22.048 16.864 22.048 16.96 22.048C17.216 22.048 17.472 22.048 17.728 22.048C18.112 22.048 18.496 22.032 18.88 22C19.2 22 19.776 22.064 20.608 22.192C20.864 22.256 21.088 22.352 21.28 22.48C21.472 22.672 21.568 22.784 21.568 22.816C21.6 22.816 21.616 22.832 21.616 22.864ZM28.816 30.064C29.008 29.68 29.104 29.008 29.104 28.048C29.04 27.536 29.008 27.136 29.008 26.848C29.008 26.496 29.008 26.128 29.008 25.744C28.976 25.456 28.96 25.024 28.96 24.448C28.96 24.256 28.96 24.048 28.96 23.824C28.96 23.76 28.96 23.68 28.96 23.584C28.928 23.072 28.88 22.56 28.816 22.048H28.768C28.864 20.864 28.88 20.144 28.816 19.888C28.816 19.024 28.816 18.144 28.816 17.248C28.752 16.928 28.72 16.688 28.72 16.528C28.752 16.4 28.768 16.224 28.768 16C28.768 15.616 28.688 15.344 28.528 15.184C28.112 14.896 27.568 14.784 26.896 14.848C26.704 14.784 26.528 14.752 26.368 14.752C26.176 14.72 25.536 14.704 24.448 14.704C24.192 14.672 23.92 14.624 23.632 14.56C23.44 14.496 23.296 14.464 23.2 14.464C22.784 14.432 22.368 14.4 21.952 14.368C21.408 14.272 20.864 14.16 20.32 14.032C20.096 13.936 19.888 13.888 19.696 13.888C19.632 13.856 19.568 13.84 19.504 13.84C19.248 13.808 18.992 13.776 18.736 13.744C18.576 13.744 18.416 13.744 18.256 13.744C17.904 13.712 17.424 13.696 16.816 13.696C16.688 13.696 16.464 13.664 16.144 13.6C15.504 13.472 15.008 13.392 14.656 13.36C14.496 13.328 14.224 13.344 13.84 13.408C13.552 13.472 13.264 13.536 12.976 13.6C12.784 13.664 12.656 13.712 12.592 13.744C12.528 13.808 12.448 13.856 12.352 13.888C12.288 13.888 11.84 13.936 11.008 14.032C10.912 14.032 10.832 14.048 10.768 14.08C10.48 14.144 10.176 14.192 9.856 14.224C9.472 14.224 9.184 14.24 8.992 14.272C8.672 14.272 8.432 14.288 8.272 14.32C7.888 14.416 7.504 14.496 7.12 14.56C6.8 14.56 6.576 14.576 6.448 14.608C5.968 14.608 5.632 14.592 5.44 14.56C4.896 14.496 4.496 14.48 4.24 14.512C3.984 14.544 3.744 14.592 3.52 14.656C3.296 14.688 3.152 14.832 3.088 15.088C3.088 15.12 3.056 15.2 2.992 15.328C2.928 15.456 2.896 15.712 2.896 16.096C2.864 16.416 2.832 16.736 2.8 17.056C2.8 17.216 2.784 17.36 2.752 17.488C2.72 17.776 2.688 18.048 2.656 18.304C2.688 18.4 2.704 18.544 2.704 18.736C2.704 18.864 2.704 18.976 2.704 19.072C2.704 19.328 2.688 19.568 2.656 19.792C2.624 19.888 2.608 20.08 2.608 20.368C2.64 21.2 2.672 22.032 2.704 22.864C2.672 23.184 2.672 23.504 2.704 23.824C2.704 24.304 2.704 24.768 2.704 25.216C2.704 25.472 2.72 25.664 2.752 25.792C2.752 25.952 2.768 26.08 2.8 26.176C2.864 26.496 2.928 26.752 2.992 26.944C2.992 26.976 2.992 27.008 2.992 27.04C3.056 27.488 3.104 27.92 3.136 28.336C3.136 28.592 3.136 28.848 3.136 29.104C3.136 29.488 3.152 29.776 3.184 29.968C3.184 30.128 3.184 30.272 3.184 30.4C3.216 30.528 3.232 30.688 3.232 30.88C3.232 30.976 3.232 31.072 3.232 31.168C3.232 31.232 3.232 31.28 3.232 31.312C3.232 31.344 3.232 31.376 3.232 31.408C3.232 31.44 3.248 31.456 3.28 31.456C3.312 31.52 3.328 31.568 3.328 31.6C3.488 31.696 3.68 31.744 3.904 31.744C4.192 31.776 4.72 31.904 5.488 32.128C5.872 32.256 6.16 32.336 6.352 32.368C6.992 32.56 7.472 32.672 7.792 32.704C7.92 32.768 8.08 32.832 8.272 32.896C8.592 32.896 8.912 32.896 9.232 32.896C9.552 32.896 9.872 32.896 10.192 32.896C10.512 32.928 10.816 32.944 11.104 32.944C11.36 32.944 11.536 32.928 11.632 32.896C12.176 32.736 12.704 32.752 13.216 32.944C13.76 32.944 14.304 32.944 14.848 32.944C15.296 33.008 15.76 32.992 16.24 32.896C16.368 32.896 16.48 32.896 16.576 32.896C16.928 32.896 17.136 32.912 17.2 32.944C17.776 33.072 18.224 33.056 18.544 32.896C18.672 32.864 18.864 32.784 19.12 32.656C19.376 32.464 19.632 32.368 19.888 32.368C20.336 32.368 20.832 32.288 21.376 32.128C21.472 32.096 21.552 32.064 21.616 32.032C21.808 31.968 21.984 31.936 22.144 31.936C22.56 31.936 22.864 31.92 23.056 31.888C23.408 31.76 23.76 31.616 24.112 31.456C24.4 31.424 24.736 31.376 25.12 31.312C25.152 31.312 25.216 31.312 25.312 31.312C25.408 31.312 25.504 31.296 25.6 31.264C25.792 31.168 25.968 31.072 26.128 30.976C26.448 30.944 26.768 30.896 27.088 30.832C27.76 30.736 28.16 30.64 28.288 30.544C28.416 30.48 28.528 30.416 28.624 30.352C28.688 30.288 28.752 30.192 28.816 30.064ZM31.648 28.384C31.68 28.608 31.664 28.848 31.6 29.104C31.568 29.424 31.488 29.904 31.36 30.544C31.328 30.608 31.312 30.72 31.312 30.88C31.216 31.104 31.12 31.328 31.024 31.552C30.96 32.032 30.88 32.352 30.784 32.512C30.784 32.544 30.768 32.608 30.736 32.704C30.704 32.768 30.672 32.8 30.64 32.8H30.592C30.208 32.992 29.824 33.168 29.44 33.328C29.12 33.456 28.8 33.584 28.48 33.712C27.776 33.808 27.072 33.904 26.368 34H26.32C25.936 34.128 25.632 34.208 25.408 34.24C25.152 34.304 24.928 34.384 24.736 34.48C24.416 34.608 24.192 34.704 24.064 34.768C23.584 34.864 23.088 34.944 22.576 35.008C22.32 35.072 22.064 35.136 21.808 35.2C21.168 35.232 20.528 35.248 19.888 35.248C19.696 35.312 19.504 35.36 19.312 35.392C19.088 35.392 18.864 35.392 18.64 35.392C18.512 35.392 18.368 35.392 18.208 35.392C18.112 35.392 17.936 35.424 17.68 35.488C17.36 35.552 17.04 35.616 16.72 35.68C16.368 35.68 16.016 35.68 15.664 35.68C15.6 35.68 15.536 35.68 15.472 35.68C15.44 35.68 15.392 35.68 15.328 35.68C15.232 35.68 15.152 35.696 15.088 35.728C15.024 35.728 14.944 35.728 14.848 35.728C14.72 35.76 14.56 35.76 14.368 35.728C14.112 35.728 13.92 35.712 13.792 35.68C13.504 35.68 13.2 35.664 12.88 35.632C12.496 35.664 12.096 35.68 11.68 35.68C11.232 35.648 10.784 35.616 10.336 35.584C10.272 35.584 10.224 35.568 10.192 35.536C10.064 35.536 9.92 35.52 9.76 35.488C9.376 35.456 8.976 35.424 8.56 35.392C8.368 35.392 8.176 35.376 7.984 35.344C7.504 35.184 7.136 35.104 6.88 35.104C5.984 35.104 5.296 35.04 4.816 34.912C4.56 34.848 4.368 34.816 4.24 34.816C4.112 34.784 3.968 34.736 3.808 34.672C3.072 34.576 2.656 34.512 2.56 34.48C2.048 34.32 1.632 34.096 1.312 33.808C1.184 33.712 1.056 33.52 0.928 33.232C0.928 33.136 0.896 32.96 0.832001 32.704C0.704 32.288 0.576 31.872 0.448001 31.456C0.544 31.04 0.576 30.512 0.544 29.872C0.576 29.456 0.544 28.944 0.448001 28.336C0.448001 27.792 0.448001 27.248 0.448001 26.704C0.512 26.32 0.544 26 0.544 25.744C0.544 25.456 0.528 25.232 0.496 25.072C0.496 24.848 0.464 24.448 0.400001 23.872C0.368001 23.68 0.352 23.392 0.352 23.008C0.352 22.88 0.352 22.736 0.352 22.576C0.384001 22.512 0.400001 22.416 0.400001 22.288C0.432001 22.16 0.464 22.032 0.496 21.904C0.592 21.616 0.64 21.312 0.64 20.992C0.64 20.608 0.624 20.32 0.592 20.128C0.592 20.064 0.576 20.032 0.544 20.032C0.544 19.968 0.528 19.888 0.496 19.792V19.744C0.464 19.52 0.448001 19.152 0.448001 18.64C0.512 18.064 0.56 17.664 0.592 17.44C0.624 17.344 0.672 17.136 0.736001 16.816C0.736001 16.4 0.720001 15.968 0.688 15.52C0.720001 15.36 0.8 15.008 0.928 14.464C0.96 14.368 0.976 14.224 0.976 14.032C1.008 13.904 1.024 13.728 1.024 13.504C1.056 13.472 1.072 13.424 1.072 13.36C1.104 13.232 1.136 13.088 1.168 12.928C1.232 12.576 1.344 12.256 1.504 11.968C1.504 11.936 1.52 11.904 1.552 11.872C1.808 11.552 2.064 11.472 2.32 11.632C2.416 11.632 2.48 11.648 2.512 11.68C2.896 11.776 3.264 11.872 3.616 11.968C3.744 11.968 3.856 11.968 3.952 11.968C4.144 11.968 4.32 11.968 4.48 11.968C4.8 11.936 5.104 11.888 5.392 11.824C5.424 11.856 5.44 11.888 5.44 11.92C5.44 11.888 5.456 11.872 5.488 11.872C5.616 11.872 5.728 11.856 5.824 11.824C5.984 11.792 6.256 11.776 6.64 11.776C6.896 11.776 7.072 11.76 7.168 11.728C7.456 11.792 7.712 11.76 7.936 11.632C8.352 11.472 8.72 11.344 9.04 11.248C9.584 11.12 10.064 11.072 10.48 11.104C10.64 11.136 11.12 11.104 11.92 11.008C12.304 10.976 12.656 10.976 12.976 11.008C13.072 11.008 13.168 11.008 13.264 11.008C13.584 11.008 13.888 11.008 14.176 11.008C14.368 10.976 14.56 10.928 14.752 10.864C14.848 10.8 15.008 10.736 15.232 10.672C15.552 10.64 16.032 10.656 16.672 10.72C16.832 10.752 16.992 10.768 17.152 10.768C17.504 10.768 17.84 10.752 18.16 10.72C18.96 10.816 19.376 10.864 19.408 10.864C19.76 10.928 20.112 10.976 20.464 11.008C20.688 11.04 21.152 11.104 21.856 11.2C21.888 11.2 22.016 11.232 22.24 11.296C22.464 11.328 22.784 11.376 23.2 11.44C23.296 11.472 23.392 11.504 23.488 11.536C23.52 11.536 23.616 11.552 23.776 11.584C23.936 11.584 24.128 11.568 24.352 11.536C24.576 11.568 24.896 11.584 25.312 11.584C25.824 11.584 26.128 11.6 26.224 11.632C26.48 11.728 26.72 11.808 26.944 11.872C27.392 11.904 27.824 11.936 28.24 11.968C28.336 12 28.416 12.016 28.48 12.016C28.544 12.016 28.576 12.032 28.576 12.064C28.768 12.128 29.024 12.192 29.344 12.256C29.6 12.288 29.84 12.304 30.064 12.304C30.32 12.4 30.496 12.56 30.592 12.784C30.656 12.976 30.704 13.152 30.736 13.312C30.768 13.536 30.864 13.856 31.024 14.272C31.216 15.008 31.296 15.568 31.264 15.952C31.264 16.464 31.264 16.96 31.264 17.44C31.2 17.856 31.184 18.24 31.216 18.592C31.152 18.848 31.152 19.104 31.216 19.36C31.216 19.52 31.248 19.696 31.312 19.888C31.408 20.848 31.456 21.344 31.456 21.376C31.488 22.112 31.504 22.832 31.504 23.536C31.536 23.824 31.552 24.112 31.552 24.4C31.584 24.784 31.6 25.152 31.6 25.504C31.6 25.984 31.584 26.464 31.552 26.944C31.584 27.424 31.616 27.904 31.648 28.384ZM69.904 23.968C70.064 23.264 70.144 22.816 70.144 22.624C70.08 22.016 69.984 21.488 69.856 21.04C69.824 20.88 69.616 20.416 69.232 19.648C69.232 19.616 69.216 19.568 69.184 19.504C69.12 19.248 69.072 19.04 69.04 18.88C69.04 18.688 68.992 18.464 68.896 18.208C68.896 18.144 68.864 18.08 68.8 18.016C68.64 17.6 68.384 17.12 68.032 16.576C67.456 15.744 67.136 15.264 67.072 15.136C66.912 14.848 66.736 14.592 66.544 14.368C66.384 14.208 66.176 13.936 65.92 13.552C65.76 13.296 65.6 13.024 65.44 12.736C65.376 12.64 65.264 12.608 65.104 12.64C64.912 12.672 64.832 12.768 64.864 12.928C64.8 13.76 64.72 14.576 64.624 15.376C64.56 15.792 64.496 16.192 64.432 16.576C64.4 16.704 64.352 16.832 64.288 16.96C64.288 17.632 64.272 18.288 64.24 18.928C64.24 19.536 64.096 20.24 63.808 21.04C63.712 21.616 63.664 22.192 63.664 22.768C63.696 23.184 63.696 23.584 63.664 23.968C63.664 24 63.632 24.144 63.568 24.4C63.504 24.656 63.472 24.944 63.472 25.264C63.44 25.52 63.408 25.76 63.376 25.984C63.376 26.016 63.376 26.08 63.376 26.176C63.376 26.24 63.344 26.464 63.28 26.848C63.248 27.136 63.216 27.408 63.184 27.664C63.248 28.08 63.232 28.416 63.136 28.672C63.136 28.928 63.12 29.104 63.088 29.2C62.96 29.712 62.912 30.064 62.944 30.256C62.976 30.64 62.992 31.008 62.992 31.36C62.992 31.488 62.976 31.584 62.944 31.648C62.912 31.84 62.864 32.032 62.8 32.224C62.704 32.512 62.656 32.816 62.656 33.136C62.656 33.328 62.64 33.504 62.608 33.664C62.608 33.696 62.592 33.728 62.56 33.76C62.56 33.792 62.56 33.856 62.56 33.952C62.56 34.048 62.56 34.128 62.56 34.192C62.56 34.224 62.56 34.256 62.56 34.288C62.56 34.288 62.576 34.288 62.608 34.288C62.608 34.32 62.608 34.352 62.608 34.384C62.64 34.384 62.656 34.4 62.656 34.432C62.688 34.432 62.704 34.432 62.704 34.432C62.736 34.432 62.752 34.448 62.752 34.48C62.784 34.48 62.816 34.48 62.848 34.48C62.88 34.48 62.896 34.48 62.896 34.48C62.928 34.48 62.96 34.464 62.992 34.432C63.024 34.432 63.104 34.4 63.232 34.336C63.232 34.304 63.248 34.288 63.28 34.288C63.312 34.256 63.344 34.224 63.376 34.192C63.408 34.192 63.424 34.192 63.424 34.192C63.424 34.16 63.44 34.144 63.472 34.144C63.472 34.112 63.488 34.096 63.52 34.096C63.52 34.064 63.536 34.048 63.568 34.048V34C63.664 33.968 63.76 33.872 63.856 33.712C63.92 33.648 63.952 33.6 63.952 33.568C63.984 33.568 64 33.552 64 33.52C64.032 33.488 64.048 33.456 64.048 33.424C64.08 33.424 64.128 33.392 64.192 33.328C64.256 33.232 64.352 33.088 64.48 32.896C64.992 32.416 65.424 31.888 65.776 31.312C65.936 31.024 66.08 30.72 66.208 30.4C66.432 30.112 66.656 29.808 66.88 29.488C66.976 29.328 67.056 29.168 67.12 29.008C67.216 28.88 67.296 28.736 67.36 28.576C67.488 28.352 67.712 28.016 68.032 27.568C68.416 27.056 68.704 26.688 68.896 26.464C68.928 26.4 69.072 26.128 69.328 25.648C69.36 25.584 69.392 25.52 69.424 25.456V25.408C69.488 25.344 69.52 25.248 69.52 25.12C69.552 25.088 69.568 25.04 69.568 24.976C69.76 24.528 69.872 24.192 69.904 23.968ZM72.4 21.472C72.656 22.112 72.688 22.72 72.496 23.296C72.496 23.392 72.48 23.472 72.448 23.536C72.416 23.568 72.384 23.6 72.352 23.632C72.096 24.016 71.952 24.416 71.92 24.832C71.888 25.056 71.808 25.312 71.68 25.6C71.648 25.696 71.456 26.096 71.104 26.8C71.04 26.896 70.8 27.488 70.384 28.576C70.16 29.024 69.904 29.424 69.616 29.776C69.552 29.872 69.488 29.984 69.424 30.112C69.232 30.56 69.04 31.008 68.848 31.456C68.656 31.776 68.464 32.08 68.272 32.368C67.76 33.04 67.488 33.424 67.456 33.52C67.232 34 66.992 34.352 66.736 34.576C66.224 35.024 65.92 35.312 65.824 35.44C65.824 35.472 65.808 35.488 65.776 35.488C65.392 35.872 65.136 36.176 65.008 36.4C64.944 36.496 64.88 36.592 64.816 36.688C64.592 36.88 64.368 37.056 64.144 37.216C63.92 37.312 63.744 37.456 63.616 37.648C63.584 37.712 63.552 37.76 63.52 37.792C63.392 37.92 63.264 38.048 63.136 38.176C62.784 38.4 62.432 38.608 62.08 38.8C61.76 39.056 61.536 39.264 61.408 39.424C61.376 39.456 61.344 39.472 61.312 39.472C61.152 39.696 60.992 39.904 60.832 40.096C60.736 40.192 60.592 40.304 60.4 40.432C59.792 40.944 59.472 41.216 59.44 41.248C58.864 41.952 58.368 42.432 57.952 42.688C57.888 42.72 57.824 42.752 57.76 42.784C57.632 42.784 57.536 42.848 57.472 42.976C57.056 43.424 56.56 43.76 55.984 43.984C55.6 44.208 55.168 44.368 54.688 44.464C54.496 44.528 54.352 44.64 54.256 44.8C54.16 44.864 54.064 44.912 53.968 44.944C53.872 45.008 53.728 45.072 53.536 45.136C53.44 45.2 53.328 45.248 53.2 45.28H53.152H53.104C52.592 45.376 52.224 45.328 52 45.136C51.808 44.944 51.808 44.672 52 44.32C52.064 44.224 52.192 44.08 52.384 43.888C52.48 43.792 52.576 43.68 52.672 43.552C52.8 43.456 52.912 43.344 53.008 43.216C53.232 43.12 53.44 43.024 53.632 42.928C53.76 42.864 53.888 42.8 54.016 42.736C54.272 42.64 54.576 42.448 54.928 42.16C55.088 42.032 55.36 41.84 55.744 41.584C55.936 41.456 56.064 41.36 56.128 41.296C56.256 41.232 56.336 41.168 56.368 41.104C56.624 40.784 56.88 40.464 57.136 40.144C57.2 40.08 57.248 40.016 57.28 39.952C57.6 39.696 57.904 39.424 58.192 39.136C58.416 38.848 58.672 38.592 58.96 38.368C59.152 38.24 59.344 38.112 59.536 37.984C60.048 37.728 60.272 37.296 60.208 36.688V36.64C60.304 36 60.352 35.648 60.352 35.584C60.416 35.456 60.48 35.264 60.544 35.008C60.576 34.944 60.592 34.864 60.592 34.768C60.784 33.104 60.88 32.256 60.88 32.224C61.168 30.976 61.232 30.08 61.072 29.536C61.072 28.832 61.072 28.128 61.072 27.424C61.072 27.328 61.04 27.152 60.976 26.896C60.976 26.064 61.008 25.536 61.072 25.312V25.264V25.216C61.072 25.152 61.088 25.104 61.12 25.072V25.024C61.152 24.96 61.168 24.896 61.168 24.832C61.2 24.8 61.216 24.752 61.216 24.688V24.64C61.248 24.576 61.264 24.496 61.264 24.4C61.296 24.112 61.312 23.808 61.312 23.488C61.376 22.912 61.424 22.336 61.456 21.76C61.488 21.632 61.504 21.04 61.504 19.984C61.504 19.856 61.504 19.728 61.504 19.6C61.504 19.536 61.504 19.472 61.504 19.408C61.536 19.344 61.552 19.248 61.552 19.12C61.552 18.992 61.568 18.896 61.6 18.832C61.6 18.576 61.6 18.304 61.6 18.016C61.696 17.216 61.856 16.448 62.08 15.712C62.112 15.648 62.128 15.584 62.128 15.52C62.128 15.456 62.144 15.408 62.176 15.376C62.208 15.312 62.224 15.232 62.224 15.136C62.288 14.976 62.288 14.8 62.224 14.608C62.224 13.936 62.208 13.424 62.176 13.072C62.24 12.528 62.288 11.984 62.32 11.44C62.32 11.024 62.304 10.608 62.272 10.192C62.272 10.128 62.272 10.048 62.272 9.952C62.272 9.696 62.288 9.504 62.32 9.376C62.384 8.928 62.416 8.608 62.416 8.416C62.48 8.16 62.432 7.936 62.272 7.744C61.92 7.072 61.504 6.368 61.024 5.632C60.992 5.568 60.912 5.472 60.784 5.344C60.656 5.184 60.512 5.024 60.352 4.864C60.224 4.64 60.096 4.416 59.968 4.192C59.872 3.968 59.76 3.744 59.632 3.52C59.536 3.36 59.44 3.184 59.344 2.992C59.248 2.672 59.136 2.352 59.008 2.032C58.816 1.712 58.72 1.456 58.72 1.264C58.752 1.232 58.768 1.184 58.768 1.12C58.832 0.959997 58.928 0.879997 59.056 0.879997C59.12 0.847998 59.168 0.847998 59.2 0.879997C59.232 0.879997 59.264 0.879997 59.296 0.879997C60 1.136 60.576 1.632 61.024 2.368C61.6 3.2 62.016 3.744 62.272 4C62.304 4.064 62.336 4.112 62.368 4.144C62.432 4.176 62.512 4.24 62.608 4.336C62.64 4.368 62.672 4.4 62.704 4.432C63.12 4.752 63.36 4.96 63.424 5.056C63.776 5.472 64.064 5.872 64.288 6.256C64.608 6.928 65.008 7.376 65.488 7.6C65.68 7.728 65.84 7.936 65.968 8.224C66.32 9.248 66.608 9.872 66.832 10.096C67.024 10.352 67.152 10.544 67.216 10.672C67.44 10.928 67.664 11.312 67.888 11.824C68.016 12.048 68.128 12.272 68.224 12.496C68.288 12.56 68.336 12.624 68.368 12.688C68.496 12.88 68.624 13.04 68.752 13.168C68.816 13.296 68.88 13.408 68.944 13.504C68.944 13.536 68.96 13.552 68.992 13.552C68.992 13.584 68.992 13.616 68.992 13.648C69.024 13.68 69.056 13.728 69.088 13.792C69.088 13.824 69.104 13.84 69.136 13.84C69.168 13.904 69.184 13.968 69.184 14.032C69.216 14.064 69.232 14.112 69.232 14.176C69.264 14.24 69.296 14.288 69.328 14.32C69.328 14.384 69.344 14.432 69.376 14.464C69.376 14.496 69.376 14.528 69.376 14.56C69.408 14.56 69.424 14.576 69.424 14.608C69.424 14.64 69.424 14.656 69.424 14.656C69.456 14.656 69.472 14.672 69.472 14.704C69.472 14.736 69.504 14.784 69.568 14.848C69.568 14.88 69.632 14.992 69.76 15.184C69.888 15.376 70 15.552 70.096 15.712C70.256 15.904 70.384 16.128 70.48 16.384C70.672 16.672 70.912 17.264 71.2 18.16C71.232 18.32 71.312 18.56 71.44 18.88C71.504 19.072 71.568 19.2 71.632 19.264C71.728 19.488 71.824 19.712 71.92 19.936C72.144 20.416 72.304 20.928 72.4 21.472ZM123.952 29.92C124.24 29.824 124.384 29.648 124.384 29.392C124.352 29.168 124.304 28.928 124.24 28.672C124.24 28.448 124.24 28.208 124.24 27.952C124.24 27.728 124.176 27.392 124.048 26.944C124.048 26.88 124 26.512 123.904 25.84C123.84 25.36 123.76 24.88 123.664 24.4C123.536 24.144 123.344 24.112 123.088 24.304C122.96 24.464 122.864 24.704 122.8 25.024C122.672 25.408 122.544 25.776 122.416 26.128C122.16 26.576 121.952 27.04 121.792 27.52C121.728 27.968 121.648 28.256 121.552 28.384C121.488 28.512 121.408 28.64 121.312 28.768C121.152 29.152 120.992 29.536 120.832 29.92C120.832 29.984 120.816 30.048 120.784 30.112C120.784 30.176 120.768 30.224 120.736 30.256C120.736 30.352 120.752 30.4 120.784 30.4C120.816 30.432 120.992 30.448 121.312 30.448C121.504 30.448 121.68 30.448 121.84 30.448C121.872 30.448 121.904 30.448 121.936 30.448C122.256 30.416 122.56 30.384 122.848 30.352C122.88 30.352 122.912 30.352 122.944 30.352C123.296 30.224 123.632 30.08 123.952 29.92ZM116.176 31.12C116.336 30.96 116.32 30.672 116.128 30.256C115.872 29.52 115.728 29.12 115.696 29.056C115.472 28.544 115.232 28.032 114.976 27.52C114.816 27.2 114.672 26.672 114.544 25.936C114.416 25.52 114.272 25.104 114.112 24.688C114.08 24.496 114 24.208 113.872 23.824C113.776 23.568 113.68 23.312 113.584 23.056C113.552 22.864 113.504 22.656 113.44 22.432C113.152 22.016 113.024 21.568 113.056 21.088C113.056 20.992 113.04 20.896 113.008 20.8C112.976 20.64 112.896 20.432 112.768 20.176C112.704 20.048 112.64 19.904 112.576 19.744C112.48 19.52 112.368 19.28 112.24 19.024C112.144 18.672 111.952 18.384 111.664 18.16C111.376 18.032 111.168 18.176 111.04 18.592C111.008 18.656 110.864 19.072 110.608 19.84C110.608 19.904 110.592 19.952 110.56 19.984C110.336 20.592 110.112 21.184 109.888 21.76C109.696 22.144 109.568 22.432 109.504 22.624C109.344 23.072 109.168 23.52 108.976 23.968C108.72 24.416 108.464 24.848 108.208 25.264C108.144 25.424 108.032 25.76 107.872 26.272C107.84 26.496 107.76 26.72 107.632 26.944C107.44 27.328 107.232 27.712 107.008 28.096C106.848 28.544 106.672 28.928 106.48 29.248C106.288 29.568 106.08 29.872 105.856 30.16C105.728 30.384 105.584 30.592 105.424 30.784C105.136 31.136 105.264 31.472 105.808 31.792C105.936 31.856 106.08 31.888 106.24 31.888C106.432 31.888 106.624 31.888 106.816 31.888C106.976 31.888 107.216 31.856 107.536 31.792C107.952 31.728 108.496 31.744 109.168 31.84C109.648 31.936 110.24 31.888 110.944 31.696C111.584 31.632 112.208 31.568 112.816 31.504C113.296 31.504 113.664 31.472 113.92 31.408C114.208 31.376 114.496 31.344 114.784 31.312C114.848 31.312 114.896 31.312 114.928 31.312C115.504 31.408 115.92 31.344 116.176 31.12ZM103.408 31.168C103.504 30.976 103.488 30.592 103.36 30.016C103.296 29.792 103.232 29.568 103.168 29.344C103.136 29.248 103.056 29.104 102.928 28.912C102.768 28.56 102.592 28.208 102.4 27.856C102.144 27.408 102 27.152 101.968 27.088C101.968 26.96 101.952 26.88 101.92 26.848C101.824 26.432 101.68 26.256 101.488 26.32C101.456 26.32 101.424 26.32 101.392 26.32C101.296 26.416 101.248 26.496 101.248 26.56C101.28 26.976 101.296 27.392 101.296 27.808C101.296 28.064 101.28 28.32 101.248 28.576C101.184 29.216 101.152 29.696 101.152 30.016C101.152 30.72 101.168 31.104 101.2 31.168C101.264 31.36 101.536 31.504 102.016 31.6C102.752 31.664 103.216 31.52 103.408 31.168ZM128.128 30.064C128.128 30.096 128.08 30.368 127.984 30.88C127.856 31.616 127.712 32.048 127.552 32.176C127.168 32.496 126.864 32.72 126.64 32.848C126.608 32.848 126.576 32.864 126.544 32.896C126.352 32.96 126.064 32.992 125.68 32.992C125.232 33.056 124.896 33.12 124.672 33.184C124.352 33.216 124.032 33.248 123.712 33.28C123.136 33.504 122.544 33.648 121.936 33.712C121.136 33.808 120.656 33.872 120.496 33.904C120.144 33.968 119.792 33.952 119.44 33.856C118.352 33.696 117.456 33.664 116.752 33.76C116.368 33.856 115.984 33.952 115.6 34.048C115.28 34.08 114.8 34.096 114.16 34.096C113.712 34.16 113.248 34.208 112.768 34.24C112.384 34.304 112 34.304 111.616 34.24C111.36 34.208 111.088 34.16 110.8 34.096C110.416 34.128 110.016 34.16 109.6 34.192C109.376 34.192 109.136 34.176 108.88 34.144C108.592 34.144 108.384 34.16 108.256 34.192C108.224 34.192 108.192 34.192 108.16 34.192C107.488 34.192 106.816 34.176 106.144 34.144C105.568 34.144 104.88 34.064 104.08 33.904C103.504 33.776 103.04 33.712 102.688 33.712C102.272 33.68 101.84 33.648 101.392 33.616C100.944 33.584 100.4 33.392 99.76 33.04C99.504 32.912 99.232 32.784 98.944 32.656C98.752 32.528 98.592 32.448 98.464 32.416C97.984 32.288 97.728 31.968 97.696 31.456C97.728 31.264 98.032 30.832 98.608 30.16C98.64 30.128 98.656 30.096 98.656 30.064C98.88 29.744 98.992 29.248 98.992 28.576C98.928 27.936 98.864 27.296 98.8 26.656C98.864 26.048 98.912 25.44 98.944 24.832C98.912 24 98.864 23.168 98.8 22.336C98.832 21.984 98.848 21.616 98.848 21.232C98.848 21.072 98.832 20.944 98.8 20.848C98.8 20.336 98.784 19.936 98.752 19.648C98.688 19.168 98.688 18.464 98.752 17.536C98.784 17.248 98.784 16.992 98.752 16.768C98.784 16.224 98.816 15.664 98.848 15.088C98.976 14.576 99.088 14.192 99.184 13.936C99.216 13.872 99.248 13.792 99.28 13.696C99.312 13.664 99.328 13.632 99.328 13.6C99.392 13.568 99.44 13.52 99.472 13.456C99.6 13.392 99.696 13.36 99.76 13.36C99.824 13.328 99.92 13.312 100.048 13.312C100.176 13.376 100.304 13.424 100.432 13.456C100.624 13.712 100.784 13.904 100.912 14.032C101.136 14.288 101.296 14.624 101.392 15.04C101.488 15.52 101.536 15.984 101.536 16.432C101.536 16.496 101.632 16.992 101.824 17.92C101.856 18.4 101.888 18.864 101.92 19.312C102.048 19.792 102.176 20.272 102.304 20.752C102.4 21.2 102.48 21.632 102.544 22.048C102.576 22.24 102.656 22.528 102.784 22.912C102.848 23.168 102.88 23.344 102.88 23.44C103.136 24.016 103.376 24.592 103.6 25.168C103.888 25.84 104.048 26.224 104.08 26.32C104.144 26.416 104.192 26.512 104.224 26.608C104.256 26.608 104.272 26.64 104.272 26.704C104.496 26.928 104.688 27.056 104.848 27.088C104.88 27.056 104.896 27.024 104.896 26.992C105.28 26.608 105.584 26.08 105.808 25.408C105.968 25.12 106.112 24.816 106.24 24.496C106.304 24.4 106.368 24.224 106.432 23.968C106.528 23.744 106.64 23.408 106.768 22.96C106.96 22.512 107.152 22.064 107.344 21.616C107.376 21.552 107.408 21.472 107.44 21.376C107.504 21.248 107.536 21.136 107.536 21.04C107.568 20.976 107.584 20.912 107.584 20.848C107.776 20.4 107.936 19.856 108.064 19.216C108.128 18.928 108.192 18.64 108.256 18.352C108.384 18.064 108.496 17.776 108.592 17.488C108.752 16.976 108.912 16.448 109.072 15.904C109.232 15.552 109.376 15.184 109.504 14.8C109.632 14.576 109.744 14.24 109.84 13.792C109.872 13.76 109.968 13.344 110.128 12.544C110.224 12.256 110.336 11.984 110.464 11.728C110.592 11.44 110.688 11.088 110.752 10.672C110.784 10.608 110.8 10.544 110.8 10.48C110.896 10.192 110.976 9.904 111.04 9.616C111.136 9.328 111.296 9.008 111.52 8.656C111.552 8.656 111.568 8.64 111.568 8.608C111.952 8.256 112.336 8.272 112.72 8.656C112.816 8.784 112.912 8.912 113.008 9.04C113.072 9.2 113.12 9.344 113.152 9.472C113.248 9.856 113.296 10.24 113.296 10.624C113.296 10.88 113.328 11.2 113.392 11.584C113.392 12 113.392 12.4 113.392 12.784C113.424 13.04 113.504 13.424 113.632 13.936C113.664 14.096 113.696 14.256 113.728 14.416C113.824 15.12 114.048 15.808 114.4 16.48C114.592 16.928 114.768 17.376 114.928 17.824C115.056 18.144 115.168 18.368 115.264 18.496C115.424 18.784 115.568 19.072 115.696 19.36C115.792 19.744 115.888 20.128 115.984 20.512C116.016 20.608 116.048 20.688 116.08 20.752C116.112 21.072 116.192 21.472 116.32 21.952C116.448 22.304 116.576 22.64 116.704 22.96C116.896 23.728 117.056 24.256 117.184 24.544C117.44 25.056 117.616 25.648 117.712 26.32C117.712 26.352 117.728 26.368 117.76 26.368C117.76 26.592 117.776 26.752 117.808 26.848C117.936 27.456 118.016 27.888 118.048 28.144C118.112 28.528 118.176 28.896 118.24 29.248C118.24 29.28 118.24 29.424 118.24 29.68C118.272 29.904 118.4 30.224 118.624 30.64C118.656 30.64 118.672 30.64 118.672 30.64C118.704 30.64 118.72 30.624 118.72 30.592C118.816 30.464 118.88 30.336 118.912 30.208C118.976 29.888 119.024 29.68 119.056 29.584C119.088 29.392 119.12 29.184 119.152 28.96C119.216 28.672 119.264 28.384 119.296 28.096C119.36 27.936 119.424 27.696 119.488 27.376C119.712 26.736 119.92 26.08 120.112 25.408C120.24 25.024 120.368 24.624 120.496 24.208C120.56 23.952 120.624 23.696 120.688 23.44C120.72 23.344 120.752 23.232 120.784 23.104C120.848 22.816 120.912 22.512 120.976 22.192C121.072 21.872 121.168 21.536 121.264 21.184C121.328 20.96 121.392 20.592 121.456 20.08C121.584 19.728 121.696 19.36 121.792 18.976C121.952 18.528 122.112 18.08 122.272 17.632C122.336 17.216 122.4 16.8 122.464 16.384C122.528 16.128 122.592 15.952 122.656 15.856V15.808C122.944 15.264 123.264 14.928 123.616 14.8C123.904 14.672 124.176 14.816 124.432 15.232C124.592 15.392 124.688 15.536 124.72 15.664C124.752 15.696 124.768 15.744 124.768 15.808C124.8 15.904 124.864 16.272 124.96 16.912C125.12 17.744 125.28 18.448 125.44 19.024C125.44 19.056 125.456 19.072 125.488 19.072C125.584 19.84 125.632 20.24 125.632 20.272C125.568 20.656 125.584 21.04 125.68 21.424C125.904 22.224 126.032 22.96 126.064 23.632C126.128 23.888 126.176 24.144 126.208 24.4C126.24 24.624 126.32 24.96 126.448 25.408C126.512 25.728 126.56 26.032 126.592 26.32C126.624 26.448 126.736 26.752 126.928 27.232C127.056 27.808 127.248 28.352 127.504 28.864C127.536 28.864 127.552 28.88 127.552 28.912C127.584 28.976 127.68 29.136 127.84 29.392C128 29.744 128.096 29.968 128.128 30.064ZM157.072 33.712C156.784 34.128 156.48 34.768 156.16 35.632C155.808 36.528 155.504 37.168 155.248 37.552C154.992 38 154.72 38.448 154.432 38.896C154.368 39.024 154.112 39.344 153.664 39.856C153.568 39.984 153.232 40.448 152.656 41.248C152.464 41.504 152.256 41.696 152.032 41.824C151.264 42.592 150.416 42.992 149.488 43.024H149.44H149.392C149.264 42.992 149.2 42.864 149.2 42.64C149.264 42.32 149.36 42.048 149.488 41.824C149.68 41.376 149.856 41.072 150.016 40.912C150.336 40.432 150.656 40.032 150.976 39.712C151.168 39.52 151.44 39.104 151.792 38.464C151.856 38.368 151.92 38.256 151.984 38.128C152.048 37.936 152.112 37.792 152.176 37.696C152.272 37.472 152.512 37.104 152.896 36.592C153.152 36.304 153.392 36.016 153.616 35.728C153.744 35.536 153.856 35.328 153.952 35.104C154.08 34.72 154.192 34.448 154.288 34.288C154.384 34.032 154.464 33.76 154.528 33.472C154.624 33.088 154.704 32.704 154.768 32.32C154.768 32.192 154.8 32 154.864 31.744C155.28 30.912 155.504 30.432 155.536 30.304C155.568 30.208 155.584 30.096 155.584 29.968C155.552 29.744 155.456 29.44 155.296 29.056C155.264 29.024 155.136 28.816 154.912 28.432C154.88 28.336 154.8 28.192 154.672 28C154.448 27.424 154.224 26.848 154 26.272C153.744 25.792 153.472 25.312 153.184 24.832C152.992 24.256 152.752 23.744 152.464 23.296C152.336 23.168 152.24 23.088 152.176 23.056C151.792 22.672 151.568 22.384 151.504 22.192C151.248 21.776 151.008 21.456 150.784 21.232C150.56 21.072 150.4 20.832 150.304 20.512C150.048 19.968 149.728 19.12 149.344 17.968C149.152 17.424 149.184 16.848 149.44 16.24C149.632 15.6 149.792 15.136 149.92 14.848C150.304 14.176 150.64 13.472 150.928 12.736C151.312 11.712 151.568 11.088 151.696 10.864C151.856 10.448 152.016 10.032 152.176 9.616C152.176 9.456 152.24 9.248 152.368 8.992C152.4 8.96 152.448 8.88 152.512 8.752C152.704 8.464 152.896 8.16 153.088 7.84C153.408 7.072 153.744 6.304 154.096 5.536C154.576 4.8 155.056 4.064 155.536 3.328C155.984 2.56 156.416 2.128 156.832 2.032C156.96 2.032 157.072 2.08 157.168 2.176C157.36 2.496 157.328 3.024 157.072 3.76C156.848 4.368 156.608 4.96 156.352 5.536C156.16 6.016 155.968 6.496 155.776 6.976C155.616 7.392 155.456 7.808 155.296 8.224C155.104 8.8 154.896 9.376 154.672 9.952C154.48 10.528 154.272 11.088 154.048 11.632C153.92 11.888 153.824 12.064 153.76 12.16C153.76 12.192 153.744 12.224 153.712 12.256C153.584 12.512 153.472 12.704 153.376 12.832C153.376 12.896 153.344 12.992 153.28 13.12C152.832 13.952 152.48 14.576 152.224 14.992C152.192 15.088 152.144 15.184 152.08 15.28C151.92 15.696 151.744 16.096 151.552 16.48C151.52 16.672 151.584 17.04 151.744 17.584C151.872 17.872 152.192 18.416 152.704 19.216C152.832 19.376 153.008 19.712 153.232 20.224C153.296 20.352 153.584 20.848 154.096 21.712C154.32 22.096 154.592 22.704 154.912 23.536C155.264 24.144 155.472 24.496 155.536 24.592C155.696 24.816 155.824 25.04 155.92 25.264C156.336 26.032 156.624 26.704 156.784 27.28C156.816 27.376 156.832 27.472 156.832 27.568C157.024 28.016 157.312 28.656 157.696 29.488C157.984 30.032 158.112 30.496 158.08 30.88C158.08 31.072 158.064 31.2 158.032 31.264C157.808 32.16 157.488 32.976 157.072 33.712ZM161.248 29.872C161.088 29.84 160.976 29.76 160.912 29.632C160.816 29.472 160.736 29.328 160.672 29.2C160.48 28.88 160.368 28.56 160.336 28.24V28.192C160.304 27.968 160.272 27.728 160.24 27.472C160.208 27.248 160.176 27.024 160.144 26.8C160.208 26.224 160.256 25.76 160.288 25.408C160.32 25.152 160.352 24.88 160.384 24.592C160.448 24.272 160.496 23.936 160.528 23.584C160.56 23.424 160.768 22.96 161.152 22.192C161.344 22 161.52 22.032 161.68 22.288C161.872 22.8 162 23.456 162.064 24.256C162.096 24.352 162.112 24.464 162.112 24.592C162.112 24.784 162.112 24.976 162.112 25.168C162.112 25.488 162.096 25.792 162.064 26.08C162.096 26.4 162.112 26.72 162.112 27.04C162.112 27.072 162.112 27.104 162.112 27.136C162.112 27.136 162.112 27.152 162.112 27.184C162.112 27.184 162.112 27.2 162.112 27.232C162.112 27.264 162.112 27.296 162.112 27.328C162.112 27.392 162.112 27.456 162.112 27.52C162.048 28.608 161.856 29.36 161.536 29.776C161.472 29.872 161.376 29.904 161.248 29.872ZM158.992 36.4C159.12 36.4 159.216 36.528 159.28 36.784C159.376 37.104 159.376 37.488 159.28 37.936C159.184 38.608 159.12 39.008 159.088 39.136C158.896 40.096 158.72 40.768 158.56 41.152C158.368 41.568 158.176 41.984 157.984 42.4C157.952 42.56 157.872 42.8 157.744 43.12C157.648 43.408 157.584 43.584 157.552 43.648C157.392 43.968 157.168 44.32 156.88 44.704C156.56 45.056 156.224 45.296 155.872 45.424C155.744 45.424 155.648 45.392 155.584 45.328C155.392 45.104 155.328 44.704 155.392 44.128C155.392 44 155.424 43.776 155.488 43.456C155.488 43.328 155.52 43.136 155.584 42.88C155.616 42.784 155.632 42.688 155.632 42.592C155.664 42.496 155.696 42.384 155.728 42.256C155.728 42.16 155.744 42.096 155.776 42.064V42.016C155.776 41.504 155.808 41.168 155.872 41.008C156.16 40.336 156.432 39.664 156.688 38.992C156.752 38.64 156.896 38.256 157.12 37.84C157.152 37.84 157.168 37.824 157.168 37.792C157.36 37.28 157.648 36.912 158.032 36.688C158.416 36.496 158.736 36.4 158.992 36.4ZM171.664 26.464C171.696 26.752 171.728 27.04 171.76 27.328C171.76 27.424 171.76 27.504 171.76 27.568C171.728 28.048 171.68 28.512 171.616 28.96C171.616 29.248 171.6 29.472 171.568 29.632C171.472 30.208 171.36 30.768 171.232 31.312C171.232 31.632 171.216 31.856 171.184 31.984C171.056 32.368 170.912 32.752 170.752 33.136C170.72 33.52 170.64 33.888 170.512 34.24C170.448 34.496 170.272 34.736 169.984 34.96C169.792 35.152 169.52 35.568 169.168 36.208C168.976 36.528 168.816 36.768 168.688 36.928C168.432 37.376 168.16 37.824 167.872 38.272C167.808 38.336 167.744 38.4 167.68 38.464C167.488 38.624 167.232 38.864 166.912 39.184C166.816 39.344 166.704 39.488 166.576 39.616C166.512 39.648 166.432 39.712 166.336 39.808C166.272 39.904 166.192 39.984 166.096 40.048C165.648 40.688 165.136 41.296 164.56 41.872C163.92 42.48 163.264 43.04 162.592 43.552C161.984 44.096 161.44 44.288 160.96 44.128C160.832 44.064 160.768 44 160.768 43.936C160.736 43.552 160.816 43.088 161.008 42.544C161.296 42.064 161.664 41.664 162.112 41.344C162.496 40.896 162.864 40.432 163.216 39.952C163.408 39.728 163.696 39.424 164.08 39.04C164.56 38.432 164.88 38.032 165.04 37.84C166 36.88 166.624 36.208 166.912 35.824C167.232 35.376 167.472 35.056 167.632 34.864C168.112 34.384 168.4 34.048 168.496 33.856C168.688 33.44 168.864 33.008 169.024 32.56C169.12 32.4 169.2 32.24 169.264 32.08C169.296 32.016 169.312 31.92 169.312 31.792C169.344 31.568 169.376 31.344 169.408 31.12C169.632 30.416 169.76 29.808 169.792 29.296C169.792 28.848 169.84 28.512 169.936 28.288C170.128 27.584 169.968 26.928 169.456 26.32C169.264 26.128 169.12 25.968 169.024 25.84C168.672 25.488 168.4 25.232 168.208 25.072C167.824 24.784 167.504 24.416 167.248 23.968C166.896 23.616 166.576 23.248 166.288 22.864C165.84 22.16 165.552 21.776 165.424 21.712C165.136 21.52 164.88 21.232 164.656 20.848C164.592 20.72 164.464 20.528 164.272 20.272C163.984 19.984 163.68 19.6 163.36 19.12C162.88 18.48 162.432 17.824 162.016 17.152C161.824 16.8 161.632 16.448 161.44 16.096C161.408 16 161.36 15.904 161.296 15.808C161.2 15.616 161.056 15.36 160.864 15.04C160.768 14.944 160.688 14.64 160.624 14.128C160.624 13.392 160.64 12.96 160.672 12.832C160.704 12.672 160.784 12.464 160.912 12.208C161.008 12.016 161.104 11.808 161.2 11.584C161.296 11.424 161.44 11.152 161.632 10.768C161.664 10.736 161.68 10.704 161.68 10.672C161.744 10.544 161.776 10.448 161.776 10.384C161.872 10 161.968 9.6 162.064 9.184C162.256 8.8 162.384 8.512 162.448 8.32C162.512 8 162.544 7.76 162.544 7.6C162.608 7.216 162.688 6.896 162.784 6.64C162.88 6.384 162.944 6.224 162.976 6.16C163.008 6.064 163.136 5.792 163.36 5.344C163.488 5.152 163.616 4.944 163.744 4.72C163.776 4.688 163.808 4.64 163.84 4.576C163.904 4.416 163.968 4.256 164.032 4.096C164.128 3.904 164.24 3.744 164.368 3.616C164.72 3.36 165.072 3.088 165.424 2.8C165.808 2.544 166.128 2.384 166.384 2.32C166.608 2.288 166.72 2.384 166.72 2.608C166.752 2.832 166.672 3.168 166.48 3.616C166.224 4.288 166.08 4.656 166.048 4.72C165.92 4.976 165.776 5.216 165.616 5.44C165.424 5.984 165.216 6.528 164.992 7.072C164.928 7.264 164.832 7.584 164.704 8.032C164.672 8.32 164.576 8.608 164.416 8.896C164.384 8.992 164.336 9.088 164.272 9.184C163.984 9.792 163.776 10.304 163.648 10.72C163.552 11.168 163.456 11.6 163.36 12.016C163.168 12.464 162.976 12.912 162.784 13.36C162.72 13.648 162.848 14.048 163.168 14.56C163.2 14.624 163.232 14.672 163.264 14.704C163.456 14.992 163.648 15.28 163.84 15.568C163.84 15.6 163.872 15.648 163.936 15.712C164.032 15.744 164.128 15.84 164.224 16C164.32 16.064 164.4 16.144 164.464 16.24C164.848 16.624 165.152 17.024 165.376 17.44C166.016 18.464 166.576 19.184 167.056 19.6C167.472 20.016 167.824 20.512 168.112 21.088C168.208 21.248 168.384 21.456 168.64 21.712C169.024 22 169.296 22.272 169.456 22.528C169.68 22.848 169.904 23.2 170.128 23.584C170.256 23.776 170.368 23.952 170.464 24.112C170.56 24.208 170.672 24.352 170.8 24.544C171.152 24.896 171.424 25.28 171.616 25.696C171.648 25.856 171.664 26.112 171.664 26.464ZM156.976 12.4C157.072 11.92 157.152 11.44 157.216 10.96C157.376 10.64 157.52 10.32 157.648 10C157.904 9.616 158.064 9.376 158.128 9.28C158.352 9.152 158.512 9.2 158.608 9.424C158.704 10.288 158.72 11.136 158.656 11.968C158.656 12.448 158.656 12.928 158.656 13.408C158.656 13.44 158.64 13.472 158.608 13.504C158.608 13.728 158.608 13.936 158.608 14.128C158.672 15.088 158.704 15.776 158.704 16.192C158.736 16.576 158.72 17.136 158.656 17.872C158.624 18.352 158.4 18.576 157.984 18.544C157.568 18.32 157.28 17.984 157.12 17.536C157.088 17.28 157.04 17.008 156.976 16.72C156.912 16.4 156.848 16.08 156.784 15.76C156.784 15.472 156.784 15.184 156.784 14.896C156.784 14.544 156.784 14.176 156.784 13.792C156.784 13.504 156.848 13.04 156.976 12.4Z" fill="white"/>
</svg>
